<svg width="20" height="20" viewBox="0 0 20 20" fill="none" xmlns="http://www.w3.org/2000/svg">
<g clip-path="url(#clip0_3503_6796)">
<mask id="mask0_3503_6796" style="mask-type:luminance" maskUnits="userSpaceOnUse" x="0" y="0" width="20" height="20">
<path d="M0 1.90735e-06H20V20H0V1.90735e-06Z" fill="white"/>
</mask>
<g mask="url(#mask0_3503_6796)">
<path d="M18.4826 11.1562V9.6498C18.4826 9.35574 18.2442 9.11738 17.9502 9.11738H11.6816" stroke="#404040" stroke-width="0.75" stroke-miterlimit="10" stroke-linecap="round" stroke-linejoin="round"/>
<path d="M18.4824 17.668V12.537" stroke="#404040" stroke-width="0.75" stroke-miterlimit="10" stroke-linecap="round" stroke-linejoin="round"/>
<path d="M10.9258 2.94922V2.09082C10.9258 1.81293 10.712 1.58176 10.435 1.56004L2.84746 0.965391C2.53797 0.941133 2.27344 1.18574 2.27344 1.49617V2.27109" stroke="#404040" stroke-width="0.75" stroke-miterlimit="10" stroke-linecap="round" stroke-linejoin="round"/>
<path d="M11.6817 17.668V9.11797V3.50105C11.6817 3.22312 11.4679 2.99195 11.1909 2.97027L10.9258 2.94949L2.27348 2.27137L2.0916 2.25711C1.78211 2.23285 1.51758 2.47746 1.51758 2.78789V17.668" stroke="#404040" stroke-width="0.75" stroke-miterlimit="10" stroke-linecap="round" stroke-linejoin="round"/>
<path d="M19.0234 17.668H18.4825H11.6816H1.51746H0.976562C0.599023 17.668 0.292969 17.974 0.292969 18.3516C0.292969 18.7291 0.599023 19.0352 0.976562 19.0352H19.0234C19.401 19.0352 19.707 18.7291 19.707 18.3516C19.707 17.974 19.401 17.668 19.0234 17.668Z" stroke="#404040" stroke-width="0.75" stroke-miterlimit="10" stroke-linecap="round" stroke-linejoin="round"/>
<path d="M4.15092 6.07031H2.96506C2.84764 6.07031 2.75244 5.97512 2.75244 5.85773V4.94535C2.75244 4.82793 2.84764 4.73273 2.96506 4.73273H4.15092C4.26834 4.73273 4.36353 4.82793 4.36353 4.94535V5.85773C4.36353 5.97512 4.26834 6.07031 4.15092 6.07031Z" stroke="#404040" stroke-width="0.75" stroke-miterlimit="10" stroke-linecap="round" stroke-linejoin="round"/>
<path d="M7.10746 6.07031H5.9216C5.80418 6.07031 5.70898 5.97512 5.70898 5.85773V4.94535C5.70898 4.82793 5.80418 4.73273 5.9216 4.73273H7.10746C7.22484 4.73273 7.32004 4.82793 7.32004 4.94535V5.85773C7.32004 5.97512 7.22484 6.07031 7.10746 6.07031Z" stroke="#404040" stroke-width="0.75" stroke-miterlimit="10" stroke-linecap="round" stroke-linejoin="round"/>
<path d="M10.0645 6.07031H8.87859C8.76117 6.07031 8.66602 5.97512 8.66602 5.85773V4.94535C8.66602 4.82793 8.76117 4.73273 8.87859 4.73273H10.0645C10.1819 4.73273 10.277 4.82793 10.277 4.94535V5.85773C10.277 5.97512 10.1819 6.07031 10.0645 6.07031Z" stroke="#404040" stroke-width="0.75" stroke-miterlimit="10" stroke-linecap="round" stroke-linejoin="round"/>
<path d="M4.15092 8.70703H2.96506C2.84764 8.70703 2.75244 8.61184 2.75244 8.49445V7.58207C2.75244 7.46465 2.84764 7.36945 2.96506 7.36945H4.15092C4.26834 7.36945 4.36353 7.46465 4.36353 7.58207V8.49445C4.36353 8.61184 4.26834 8.70703 4.15092 8.70703Z" stroke="#404040" stroke-width="0.75" stroke-miterlimit="10" stroke-linecap="round" stroke-linejoin="round"/>
<path d="M7.10746 8.70703H5.9216C5.80418 8.70703 5.70898 8.61184 5.70898 8.49445V7.58207C5.70898 7.46465 5.80418 7.36945 5.9216 7.36945H7.10746C7.22484 7.36945 7.32004 7.46465 7.32004 7.58207V8.49445C7.32004 8.61184 7.22484 8.70703 7.10746 8.70703Z" stroke="#404040" stroke-width="0.75" stroke-miterlimit="10" stroke-linecap="round" stroke-linejoin="round"/>
<path d="M10.0645 8.70703H8.87859C8.76117 8.70703 8.66602 8.61184 8.66602 8.49445V7.58207C8.66602 7.46465 8.76117 7.36945 8.87859 7.36945H10.0645C10.1819 7.36945 10.277 7.46465 10.277 7.58207V8.49445C10.277 8.61184 10.1819 8.70703 10.0645 8.70703Z" stroke="#404040" stroke-width="0.75" stroke-miterlimit="10" stroke-linecap="round" stroke-linejoin="round"/>
<path d="M4.15092 11.3398H2.96506C2.84764 11.3398 2.75244 11.2446 2.75244 11.1273V10.2149C2.75244 10.0975 2.84764 10.0023 2.96506 10.0023H4.15092C4.26834 10.0023 4.36353 10.0975 4.36353 10.2149V11.1273C4.36353 11.2446 4.26834 11.3398 4.15092 11.3398Z" stroke="#404040" stroke-width="0.75" stroke-miterlimit="10" stroke-linecap="round" stroke-linejoin="round"/>
<path d="M5.6465 14.3281H3.02197C2.87311 14.3281 2.75244 14.2075 2.75244 14.0586V13.2601C2.75244 13.1112 2.87311 12.9905 3.02197 12.9905H5.6465C5.79537 12.9905 5.91603 13.1112 5.91603 13.2601V14.0586C5.91603 14.2075 5.79537 14.3281 5.6465 14.3281Z" stroke="#404040" stroke-width="0.75" stroke-miterlimit="10" stroke-linecap="round" stroke-linejoin="round"/>
<path d="M7.10746 11.3398H5.9216C5.80418 11.3398 5.70898 11.2446 5.70898 11.1273V10.2149C5.70898 10.0975 5.80418 10.0023 5.9216 10.0023H7.10746C7.22484 10.0023 7.32004 10.0975 7.32004 10.2149V11.1273C7.32004 11.2446 7.22484 11.3398 7.10746 11.3398Z" stroke="#404040" stroke-width="0.75" stroke-miterlimit="10" stroke-linecap="round" stroke-linejoin="round"/>
<path d="M10.0645 11.3398H8.87859C8.76117 11.3398 8.66602 11.2446 8.66602 11.1273V10.2149C8.66602 10.0975 8.76117 10.0023 8.87859 10.0023H10.0645C10.1819 10.0023 10.277 10.0975 10.277 10.2149V11.1273C10.277 11.2446 10.1819 11.3398 10.0645 11.3398Z" stroke="#404040" stroke-width="0.75" stroke-miterlimit="10" stroke-linecap="round" stroke-linejoin="round"/>
<path d="M7.17383 16.4506V17.668" stroke="#404040" stroke-width="0.75" stroke-miterlimit="10" stroke-linecap="round" stroke-linejoin="round"/>
<path d="M10.2769 17.668V13.1805C10.2769 13.0752 10.1916 12.9899 10.0863 12.9899H7.36441C7.25914 12.9899 7.17383 13.0752 7.17383 13.1805V15.081" stroke="#404040" stroke-width="0.75" stroke-miterlimit="10" stroke-linecap="round" stroke-linejoin="round"/>
<path d="M14.3271 12.5742H13.1307C12.9949 12.5742 12.8848 12.4641 12.8848 12.3283V11.3793C12.8848 11.2434 12.9949 11.1333 13.1307 11.1333H14.3271C14.463 11.1333 14.5731 11.2434 14.5731 11.3793V12.3283C14.5731 12.4641 14.463 12.5742 14.3271 12.5742Z" stroke="#404040" stroke-width="0.75" stroke-miterlimit="10" stroke-linecap="round" stroke-linejoin="round"/>
<path d="M14.3271 15.2773H13.1307C12.9949 15.2773 12.8848 15.1672 12.8848 15.0314V14.0824C12.8848 13.9466 12.9949 13.8364 13.1307 13.8364H14.3271C14.463 13.8364 14.5731 13.9466 14.5731 14.0824V15.0314C14.5731 15.1672 14.463 15.2773 14.3271 15.2773Z" stroke="#404040" stroke-width="0.75" stroke-miterlimit="10" stroke-linecap="round" stroke-linejoin="round"/>
<path d="M17.0522 12.5742H15.8558C15.72 12.5742 15.6099 12.4641 15.6099 12.3283V11.3793C15.6099 11.2434 15.72 11.1333 15.8558 11.1333H17.0522C17.1881 11.1333 17.2982 11.2434 17.2982 11.3793V12.3283C17.2982 12.4641 17.1881 12.5742 17.0522 12.5742Z" stroke="#404040" stroke-width="0.75" stroke-miterlimit="10" stroke-linecap="round" stroke-linejoin="round"/>
<path d="M17.0522 15.2773H15.8558C15.72 15.2773 15.6099 15.1672 15.6099 15.0314V14.0824C15.6099 13.9466 15.72 13.8364 15.8558 13.8364H17.0522C17.1881 13.8364 17.2982 13.9466 17.2982 14.0824V15.0314C17.2982 15.1672 17.1881 15.2773 17.0522 15.2773Z" stroke="#404040" stroke-width="0.75" stroke-miterlimit="10" stroke-linecap="round" stroke-linejoin="round"/>
</g>
</g>
<defs>
<clipPath id="clip0_3503_6796">
<rect width="20" height="20" fill="white"/>
</clipPath>
</defs>
</svg>
