<svg width="20" height="20" viewBox="0 0 20 20" fill="none" xmlns="http://www.w3.org/2000/svg">
<g clip-path="url(#clip0_3503_6746)">
<path d="M3.90625 11.4062H2.34375C1.48082 11.4062 0.78125 10.7067 0.78125 9.84375V2.34375C0.78125 1.48082 1.48082 0.78125 2.34375 0.78125H3.90625C4.76918 0.78125 5.46875 1.48082 5.46875 2.34375V9.84375C5.46875 10.7067 4.76918 11.4062 3.90625 11.4062Z" stroke="#343434" stroke-miterlimit="10" stroke-linecap="round" stroke-linejoin="round"/>
<path d="M9.84375 19.2188H2.34375C1.48082 19.2188 0.78125 18.5192 0.78125 17.6562V16.0938C0.78125 15.2308 1.48082 14.5312 2.34375 14.5312H9.84375C10.7067 14.5312 11.4062 15.2308 11.4062 16.0938V17.6562C11.4062 18.5192 10.7067 19.2188 9.84375 19.2188Z" stroke="#343434" stroke-miterlimit="10" stroke-linecap="round" stroke-linejoin="round"/>
<path d="M17.6562 19.2188H16.0938C15.2308 19.2188 14.5312 18.5192 14.5312 17.6562V16.0938C14.5312 15.2308 15.2308 14.5312 16.0938 14.5312H17.6562C18.5192 14.5312 19.2188 15.2308 19.2188 16.0938V17.6562C19.2188 18.5192 18.5192 19.2188 17.6562 19.2188Z" stroke="#343434" stroke-miterlimit="10" stroke-linecap="round" stroke-linejoin="round"/>
<path d="M17.6562 11.4062H10.1562C9.29332 11.4062 8.59375 10.7067 8.59375 9.84375V2.34375C8.59375 1.48082 9.29332 0.78125 10.1562 0.78125H17.6562C18.5192 0.78125 19.2188 1.48082 19.2188 2.34375V9.84375C19.2188 10.7067 18.5192 11.4062 17.6562 11.4062Z" stroke="#343434" stroke-miterlimit="10" stroke-linecap="round" stroke-linejoin="round"/>
</g>
<defs>
<clipPath id="clip0_3503_6746">
<rect width="20" height="20" fill="white"/>
</clipPath>
</defs>
</svg>
