<svg width="24" height="24" viewBox="0 0 24 24" fill="none" xmlns="http://www.w3.org/2000/svg">
<mask id="mask0_2970_22250" style="mask-type:alpha" maskUnits="userSpaceOnUse" x="0" y="0" width="24" height="24">
<rect width="24" height="24" fill="#D9D9D9"/>
</mask>
<g mask="url(#mask0_2970_22250)">
<path d="M7.6155 19.9997C7.17117 19.9997 6.79083 19.8416 6.4745 19.5252C6.15817 19.2089 6 18.8286 6 18.3842V5.99972H5.5C5.35833 5.99972 5.23958 5.95172 5.14375 5.85572C5.04792 5.75972 5 5.6408 5 5.49897C5 5.35714 5.04792 5.23847 5.14375 5.14297C5.23958 5.04747 5.35833 4.99972 5.5 4.99972H9C9 4.79339 9.07658 4.61355 9.22975 4.46022C9.38292 4.30705 9.56275 4.23047 9.76925 4.23047H14.2308C14.4373 4.23047 14.6171 4.30705 14.7703 4.46022C14.9234 4.61355 15 4.79339 15 4.99972H18.5C18.6417 4.99972 18.7604 5.04772 18.8562 5.14372C18.9521 5.23972 19 5.35864 19 5.50047C19 5.6423 18.9521 5.76097 18.8562 5.85647C18.7604 5.95197 18.6417 5.99972 18.5 5.99972H18V18.3842C18 18.8286 17.8418 19.2089 17.5255 19.5252C17.2092 19.8416 16.8288 19.9997 16.3845 19.9997H7.6155ZM17 5.99972H7V18.3842C7 18.5637 7.05767 18.7112 7.173 18.8267C7.2885 18.9421 7.436 18.9997 7.6155 18.9997H16.3845C16.564 18.9997 16.7115 18.9421 16.827 18.8267C16.9423 18.7112 17 18.5637 17 18.3842V5.99972ZM10.3082 16.9997C10.4503 16.9997 10.569 16.9518 10.6645 16.856C10.76 16.7601 10.8078 16.6414 10.8078 16.4997V8.49972C10.8078 8.35805 10.7597 8.2393 10.6637 8.14347C10.5677 8.04764 10.4488 7.99972 10.307 7.99972C10.1652 7.99972 10.0465 8.04764 9.951 8.14347C9.8555 8.2393 9.80775 8.35805 9.80775 8.49972V16.4997C9.80775 16.6414 9.85575 16.7601 9.95175 16.856C10.0476 16.9518 10.1664 16.9997 10.3082 16.9997ZM13.693 16.9997C13.8348 16.9997 13.9535 16.9518 14.049 16.856C14.1445 16.7601 14.1923 16.6414 14.1923 16.4997V8.49972C14.1923 8.35805 14.1442 8.2393 14.0483 8.14347C13.9524 8.04764 13.8336 7.99972 13.6917 7.99972C13.5497 7.99972 13.431 8.04764 13.3355 8.14347C13.24 8.2393 13.1923 8.35805 13.1923 8.49972V16.4997C13.1923 16.6414 13.2403 16.7601 13.3363 16.856C13.4323 16.9518 13.5512 16.9997 13.693 16.9997Z" fill="#1C1B1F"/>
</g>
</svg>
