<svg width="20" height="20" viewBox="0 0 20 20" fill="none" xmlns="http://www.w3.org/2000/svg">
<g clip-path="url(#clip0_3503_11229)">
<mask id="mask0_3503_11229" style="mask-type:luminance" maskUnits="userSpaceOnUse" x="0" y="0" width="20" height="20">
<path d="M0 1.90735e-06H20V20H0V1.90735e-06Z" fill="white"/>
</mask>
<g mask="url(#mask0_3503_11229)">
<path d="M7.76904 14.6858C8.30404 17.3817 10.6821 19.4141 13.5351 19.4141C14.7147 19.4141 15.813 19.0664 16.7336 18.4682L19.1313 19.1314L18.4681 16.7337C19.0663 15.8131 19.414 14.7148 19.414 13.5352C19.414 10.6821 17.3816 8.30414 14.6857 7.76914" stroke="#404040" stroke-miterlimit="10"/>
<path d="M7.63672 0.585939C3.7427 0.585939 0.585938 3.7427 0.585938 7.63672C0.585938 9.03273 0.991758 10.3339 1.69168 11.4289L0.868555 14.4049L3.84449 13.5818C4.93953 14.2817 6.2407 14.6875 7.63672 14.6875C11.5307 14.6875 14.6875 11.5307 14.6875 7.63672C14.6875 3.7427 11.5307 0.585939 7.63672 0.585939Z" stroke="#404040" stroke-miterlimit="10"/>
<path d="M7.72266 11.2578V11.0859H7.55078V11.2578H7.72266Z" fill="#404040" stroke="#404040"/>
<path d="M5.87891 5.85938C5.87891 4.88856 6.6659 4.10156 7.63672 4.10156C8.60754 4.10156 9.39453 4.88856 9.39453 5.85938C9.39453 6.37305 9.1741 6.8352 8.82277 7.15656L7.63672 8.24219V9.41406" stroke="#404040" stroke-miterlimit="10"/>
</g>
</g>
<defs>
<clipPath id="clip0_3503_11229">
<rect width="20" height="20" fill="white"/>
</clipPath>
</defs>
</svg>
