<svg width="20" height="20" viewBox="0 0 20 20" fill="none" xmlns="http://www.w3.org/2000/svg">
<g clip-path="url(#clip0_3503_2873)">
<path d="M6.64375 12.8492C6.40742 12.2859 5.85117 11.8906 5.20195 11.8906H1.85586C0.992578 11.8906 0.292969 12.5902 0.292969 13.4531V17.2836H3.71914" stroke="#404040" stroke-width="0.75" stroke-miterlimit="10" stroke-linecap="round" stroke-linejoin="round"/>
<path d="M1.91406 10.3699C1.96484 11.2172 2.66836 11.8891 3.52891 11.8891C4.42266 11.8891 5.14687 11.1645 5.14687 10.2711V9.19219C5.14687 8.29883 4.42266 7.57422 3.52891 7.57422C3.08203 7.57422 2.67734 7.75547 2.38477 8.04805C2.11406 8.31914 1.93867 8.68594 1.91406 9.09336" stroke="#404040" stroke-width="0.75" stroke-miterlimit="10" stroke-linecap="round" stroke-linejoin="round"/>
<path d="M1.50635 14.0469V17.2828" stroke="#404040" stroke-width="0.75" stroke-miterlimit="10" stroke-linecap="round" stroke-linejoin="round"/>
<path d="M13.3564 12.8492V12.8488C13.5932 12.2859 14.149 11.8906 14.7982 11.8906H16.4713H18.1443C19.0076 11.8906 19.7072 12.5902 19.7072 13.4531V14.4348" stroke="#404040" stroke-width="0.75" stroke-miterlimit="10" stroke-linecap="round" stroke-linejoin="round"/>
<path d="M19.7068 15.7109V17.2828H18.4936H16.2803" stroke="#404040" stroke-width="0.75" stroke-miterlimit="10" stroke-linecap="round" stroke-linejoin="round"/>
<path d="M16.471 11.8888C15.5774 11.8888 14.853 11.1644 14.853 10.2708V9.19219C14.853 8.29859 15.5774 7.57422 16.471 7.57422C17.3646 7.57422 18.089 8.29859 18.089 9.19219V10.2708C18.089 11.1644 17.3646 11.8888 16.471 11.8888Z" stroke="#404040" stroke-width="0.75" stroke-miterlimit="10" stroke-linecap="round" stroke-linejoin="round"/>
<path d="M18.4937 14.0469V17.2828" stroke="#404040" stroke-width="0.75" stroke-miterlimit="10" stroke-linecap="round" stroke-linejoin="round"/>
<path d="M8.28711 11.8992V10.5469" stroke="#404040" stroke-width="0.75" stroke-miterlimit="10" stroke-linecap="round" stroke-linejoin="round"/>
<path d="M7.16729 12.7266H7.1665L6.64385 12.8469L4.80869 13.2684C4.15713 13.4914 3.71924 14.1039 3.71924 14.793V17.2813V18.4945H6.42236" stroke="#404040" stroke-width="0.75" stroke-miterlimit="10" stroke-linecap="round" stroke-linejoin="round"/>
<path d="M7.69922 18.4969H16.2809L16.2805 17.2836L16.2801 14.7621C16.2668 14.0867 15.8324 13.4902 15.1914 13.2707L13.3562 12.8488L12.8406 12.7305" stroke="#404040" stroke-width="0.75" stroke-miterlimit="10" stroke-linecap="round" stroke-linejoin="round"/>
<path d="M11.7129 11.907V10.5469" stroke="#404040" stroke-width="0.75" stroke-miterlimit="10" stroke-linecap="round" stroke-linejoin="round"/>
<path d="M11.9398 3.89062C12.3652 3.96172 12.9395 4.35859 12.9395 5.10078V8.27695C12.9395 9.77656 11.7238 10.9918 10.2242 10.9918H9.77578C8.27617 10.9918 7.06055 9.77656 7.06055 8.27695V7.68203" stroke="#404040" stroke-width="0.75" stroke-miterlimit="10" stroke-linecap="round" stroke-linejoin="round"/>
<path d="M11.7432 1.96484H12.5323C13.3631 1.96484 14.0366 2.67383 14.0366 3.54855V5.61773" stroke="#404040" stroke-width="0.75" stroke-miterlimit="10" stroke-linecap="round" stroke-linejoin="round"/>
<path d="M12.9395 5.4375H13.5278C13.9786 5.4375 14.3441 5.80297 14.3441 6.25379V6.86547C14.3441 7.31629 13.9786 7.68176 13.5278 7.68176H12.9395V5.4375Z" stroke="#404040" stroke-width="0.75" stroke-miterlimit="10" stroke-linecap="round" stroke-linejoin="round"/>
<path d="M7.06045 5.64805V7.68477H6.47217C6.02139 7.68477 5.65576 7.31953 5.65576 6.86875V6.25703C5.65576 6.00469 5.77061 5.77891 5.95068 5.62891" stroke="#404040" stroke-width="0.75" stroke-miterlimit="10" stroke-linecap="round" stroke-linejoin="round"/>
<path d="M8.73486 6.55078V6.93531" stroke="#404040" stroke-width="0.75" stroke-miterlimit="10" stroke-linecap="round" stroke-linejoin="round"/>
<path d="M11.2593 6.55078V6.93531" stroke="#404040" stroke-width="0.75" stroke-miterlimit="10" stroke-linecap="round" stroke-linejoin="round"/>
<path d="M9.26514 8.52734C9.26514 8.93312 9.59408 9.26207 9.99986 9.26207C10.4056 9.26207 10.7346 8.93312 10.7346 8.52734" stroke="#404040" stroke-width="0.75" stroke-miterlimit="10" stroke-linecap="round" stroke-linejoin="round"/>
<path d="M11.2966 4.47445L10.3722 4.90621C9.32674 5.39453 8.19564 5.64684 7.05186 5.64684H5.95068V4.25105C5.95068 2.73602 7.11729 1.50781 8.55639 1.50781H10.6996C11.5127 1.50781 12.1718 2.20172 12.1718 3.05773C12.1718 3.67059 11.8287 4.2259 11.2966 4.47445Z" stroke="#404040" stroke-width="0.75" stroke-miterlimit="10" stroke-linecap="round" stroke-linejoin="round"/>
<path d="M7.1665 12.7287L8.78658 14.3196L10.0082 13.5158L8.28705 11.9023L7.1665 12.7287Z" stroke="#404040" stroke-width="0.75" stroke-miterlimit="10" stroke-linecap="round" stroke-linejoin="round"/>
<path d="M12.8417 12.7287L11.2216 14.3196L10 13.5158L11.7212 11.9023L12.8417 12.7287Z" stroke="#404040" stroke-width="0.75" stroke-miterlimit="10" stroke-linecap="round" stroke-linejoin="round"/>
<path d="M9.26514 14.0045L9.39318 15.0728H10.6065L10.7429 14.0045L9.99986 13.5156L9.26514 14.0045Z" stroke="#404040" stroke-width="0.75" stroke-miterlimit="10" stroke-linecap="round" stroke-linejoin="round"/>
<path d="M8.78662 18.4936L9.3933 15.0703H10.6067L11.2133 18.4936" stroke="#404040" stroke-width="0.75" stroke-miterlimit="10" stroke-linecap="round" stroke-linejoin="round"/>
<path d="M5.75342 16.0703V18.4963" stroke="#404040" stroke-width="0.75" stroke-miterlimit="10" stroke-linecap="round" stroke-linejoin="round"/>
<path d="M14.2466 16.0703V18.4963" stroke="#404040" stroke-width="0.75" stroke-miterlimit="10" stroke-linecap="round" stroke-linejoin="round"/>
</g>
<defs>
<clipPath id="clip0_3503_2873">
<rect width="20" height="20" fill="white"/>
</clipPath>
</defs>
</svg>
