<svg width="24" height="36" viewBox="0 0 24 36" fill="none" xmlns="http://www.w3.org/2000/svg">
<path fill-rule="evenodd" clip-rule="evenodd" d="M3.35977 18.6289C3.19523 18.3818 3.06241 18.1679 2.96223 18C3.06241 17.8321 3.19523 17.6182 3.35977 17.3711C3.78238 16.7366 4.40823 15.8928 5.22076 15.0524C6.86253 13.3543 9.1579 11.7778 12.0001 11.7778C14.8423 11.7778 17.1376 13.3543 18.7794 15.0524C19.5919 15.8928 20.2178 16.7366 20.6404 17.3711C20.8049 17.6182 20.9377 17.8321 21.0379 18C20.9377 18.1679 20.8049 18.3818 20.6404 18.6289C20.2178 19.2634 19.5919 20.1072 18.7794 20.9476C17.1376 22.6457 14.8423 24.2222 12.0001 24.2222C9.1579 24.2222 6.86253 22.6457 5.22076 20.9476C4.40823 20.1072 3.78238 19.2634 3.35977 18.6289ZM22.9032 17.6019C22.9032 17.6019 23.0428 18.1268 22.9032 18.3981L22.9017 18.401L22.8986 18.4071L22.8882 18.4268C22.8794 18.4433 22.8671 18.4664 22.8511 18.4956C22.8192 18.554 22.773 18.6371 22.7125 18.7413C22.5917 18.9497 22.4138 19.2431 22.1805 19.5934C21.7151 20.2922 21.0232 21.2261 20.1169 22.1635C18.3211 24.0209 15.5747 26 12.0001 26C8.42545 26 5.67905 24.0209 3.88324 22.1635C2.97698 21.2261 2.28509 20.2922 1.81966 19.5934C1.58638 19.2431 1.40849 18.9497 1.28765 18.7413C1.2272 18.6371 1.18092 18.554 1.14903 18.4956C1.13309 18.4664 1.12073 18.4433 1.11198 18.4268L1.10158 18.4071L1.09842 18.401L1.09735 18.3989L1.09694 17.6019L1.09842 17.599L1.10158 17.5929L1.11198 17.5732C1.12073 17.5567 1.13309 17.5336 1.14903 17.5044C1.18092 17.446 1.2272 17.3629 1.28765 17.2587C1.40849 17.0503 1.58638 16.7569 1.81966 16.4066C2.28509 15.7078 2.97698 14.7739 3.88324 13.8365C5.67905 11.9791 8.42545 10 12.0001 10C15.5747 10 18.3211 11.9791 20.1169 13.8365C21.0232 14.7739 21.7151 15.7078 22.1805 16.4066C22.4138 16.7569 22.5917 17.0503 22.7125 17.2587C22.773 17.3629 22.8192 17.446 22.8511 17.5044C22.8671 17.5336 22.8794 17.5567 22.8882 17.5732L22.8986 17.5929L22.9017 17.599L22.9032 17.6019ZM22.9032 18.3981C23.0323 18.1479 23.0323 17.8521 22.9032 17.6019C22.9032 17.6019 23.0428 18.1268 22.9032 18.3981ZM1.09662 18.3975L1.09678 17.9997L1.09694 17.6019C0.967902 17.8521 0.96758 18.1473 1.09662 18.3975ZM12.0001 14.4444C11.0276 14.4444 10.0949 14.819 9.4073 15.4858C8.71965 16.1526 8.33333 17.057 8.33333 18C8.33333 18.943 8.71965 19.8474 9.4073 20.5142C10.0949 21.181 11.0276 21.5556 12.0001 21.5556C12.9726 21.5556 13.9052 21.181 14.5929 20.5142C15.2805 19.8474 15.6668 18.943 15.6668 18C15.6668 17.057 15.2805 16.1526 14.5929 15.4858C13.9052 14.819 12.9726 14.4444 12.0001 14.4444ZM13.2965 19.2571C12.9526 19.5905 12.4863 19.7778 12.0001 19.7778C11.5138 19.7778 11.0475 19.5905 10.7037 19.2571C10.3599 18.9237 10.1667 18.4715 10.1667 18C10.1667 17.5285 10.3599 17.0763 10.7037 16.7429C11.0475 16.4095 11.5138 16.2222 12.0001 16.2222C12.4863 16.2222 12.9526 16.4095 13.2965 16.7429C13.6403 17.0763 13.8335 17.5285 13.8335 18C13.8335 18.4715 13.6403 18.9237 13.2965 19.2571Z" fill="#0690fd"/>
</svg>
