<svg width="4913" height="1212" viewBox="0 0 4913 1212" fill="none" xmlns="http://www.w3.org/2000/svg">
<path fill-rule="evenodd" clip-rule="evenodd" d="M780.013 260.12C739.042 230.177 691.242 207.962 638.565 195.405C421.029 142.282 201.542 273.642 147.89 489.034C94.2375 704.427 226.905 921.751 444.441 974.875C555.648 1001.92 666.855 980.67 756.601 924.649C682.463 960.386 596.619 971.011 510.775 949.762C314.7 903.399 194.714 707.325 243.489 512.216C291.288 318.073 490.29 199.269 686.365 246.597C714.654 253.358 740.993 263.017 765.38 275.574C770.258 270.744 775.135 265.915 780.013 260.12Z" fill="white"/>
<path fill-rule="evenodd" clip-rule="evenodd" d="M840.486 202.165C801.466 178.984 759.52 161.598 713.672 150.973C597.587 122.962 481.503 140.348 383.953 191.54C465.895 158.7 558.567 150.007 650.264 172.222C705.868 185.745 755.618 208.926 799.515 239.834C812.197 226.312 826.829 213.756 840.486 202.165ZM1056.07 710.221C1090.21 574.031 1059 436.875 981.934 330.628C961.448 345.116 942.914 362.502 925.355 381.82C975.105 472.613 992.664 580.792 965.35 688.971C908.771 917.886 674.652 1058.91 442.483 1001.92C349.811 979.703 272.747 929.477 215.192 861.865C277.624 952.658 373.223 1021.24 488.332 1049.25C740.986 1110.1 994.615 958.453 1056.07 710.221Z" fill="white"/>
<path fill-rule="evenodd" clip-rule="evenodd" d="M811.235 680.281C816.113 727.609 829.77 773.006 851.231 815.505C855.133 810.675 859.035 804.88 862.937 800.051C838.549 763.347 820.99 722.78 811.235 680.281ZM971.217 958.456C1147.78 1089.82 1398.48 1057.94 1535.05 885.048C1672.6 710.223 1641.38 458.127 1465.79 320.971C1376.05 251.428 1264.84 225.349 1160.46 239.837C1242.41 237.905 1325.32 263.018 1395.56 316.142C1554.56 439.775 1582.85 666.759 1457.99 824.198C1347.76 963.285 1155.59 1000.95 1002.43 923.684C991.702 936.24 981.947 947.831 971.217 958.456Z" fill="white"/>
<path fill-rule="evenodd" clip-rule="evenodd" d="M797.562 315.176C664.894 483.24 667.82 715.052 791.709 877.321C806.341 865.73 819.023 853.174 831.704 839.651C751.713 694.769 761.468 510.285 870.724 371.197C1018.02 184.781 1289.21 151.941 1476.51 297.79C1551.62 355.743 1601.37 433.014 1625.76 517.046C1606.25 408.867 1547.72 307.449 1454.07 235.007C1250.19 77.568 956.568 113.306 797.562 315.176ZM927.303 998.057C1010.22 1047.32 1103.87 1067.6 1196.54 1061.8C1110.7 1058.91 1025.83 1030.9 952.666 976.807C943.886 983.568 935.107 991.295 927.303 998.057Z" fill="white"/>
<path d="M3412.97 603.401L3458.57 476.201H3544.57L3402.17 807.401H3316.97L3370.57 691.002L3278.57 476.201H3365.77L3412.97 603.401ZM2349.46 700.602H2270.67V669.401C2264.53 679.801 2255.87 688.068 2244.67 694.201C2233.47 700.334 2220.27 703.401 2205.07 703.401C2187.2 703.401 2170.93 698.735 2156.27 689.401C2141.87 680.068 2130.4 666.735 2121.87 649.401C2113.6 631.801 2109.46 611.401 2109.46 588.201C2109.46 565.001 2113.6 544.735 2121.87 527.401C2130.4 510.068 2142 496.735 2156.67 487.401C2171.33 478.068 2187.6 473.401 2205.46 473.401C2219.86 473.401 2232.67 476.468 2243.87 482.602C2255.33 488.468 2264.27 496.602 2270.67 507.002V404.602H2349.46V700.602ZM2782.36 473.401C2811.69 473.401 2834.76 480.602 2851.56 495.002C2868.36 509.402 2878.09 528.335 2880.76 551.802H2809.96C2808.63 544.602 2805.43 539.135 2800.36 535.401C2795.56 531.401 2789.03 529.401 2780.76 529.401C2774.36 529.401 2769.43 530.602 2765.96 533.002C2762.76 535.402 2761.16 538.735 2761.16 543.002C2761.16 548.335 2764.23 552.468 2770.36 555.401C2776.49 558.068 2786.36 560.868 2799.96 563.802C2816.23 567.268 2829.69 571.135 2840.36 575.401C2851.29 579.668 2860.76 586.601 2868.76 596.201C2877.03 605.535 2881.16 618.335 2881.16 634.602C2881.16 647.668 2877.29 659.402 2869.56 669.802C2862.09 680.202 2851.29 688.468 2837.16 694.602C2823.29 700.468 2806.89 703.401 2787.96 703.401C2767.69 703.401 2749.56 700.068 2733.56 693.401C2717.83 686.468 2705.29 677.135 2695.96 665.401C2686.89 653.402 2681.83 639.935 2680.76 625.002H2756.76C2757.83 632.202 2761.16 637.802 2766.76 641.802C2772.36 645.802 2779.29 647.802 2787.56 647.802C2793.96 647.802 2799.03 646.468 2802.76 643.802C2806.49 641.135 2808.36 637.668 2808.36 633.401C2808.36 627.802 2805.29 623.669 2799.16 621.002C2793.03 618.335 2782.89 615.401 2768.76 612.201C2752.76 609.001 2739.43 605.401 2728.76 601.401C2718.09 597.401 2708.76 590.868 2700.76 581.802C2693.03 572.735 2689.16 560.468 2689.16 545.002C2689.16 531.669 2692.76 519.669 2699.96 509.002C2707.16 498.069 2717.69 489.402 2731.56 483.002C2745.69 476.602 2762.63 473.401 2782.36 473.401ZM4504.12 473.401C4526.25 473.401 4545.86 477.935 4562.92 487.002C4579.99 496.069 4593.32 509.135 4602.92 526.201C4612.52 543.001 4617.32 562.868 4617.32 585.802C4617.32 591.935 4616.92 598.068 4616.12 604.201H4467.72C4468.52 616.468 4471.85 625.668 4477.72 631.802C4483.85 637.668 4491.59 640.602 4500.92 640.602C4513.99 640.601 4523.32 634.735 4528.92 623.002H4612.52C4609.05 638.468 4602.25 652.335 4592.12 664.602C4582.25 676.601 4569.72 686.069 4554.52 693.002C4539.32 699.935 4522.52 703.401 4504.12 703.401C4481.99 703.401 4462.26 698.735 4444.92 689.401C4427.86 680.068 4414.39 666.735 4404.52 649.401C4394.92 632.068 4390.12 611.668 4390.12 588.201C4390.12 564.735 4394.92 544.468 4404.52 527.401C4414.12 510.068 4427.45 496.735 4444.52 487.401C4461.85 478.068 4481.72 473.401 4504.12 473.401ZM2482.54 596.602C2482.54 609.402 2485.87 619.535 2492.54 627.002C2499.47 634.202 2508.54 637.802 2519.74 637.802C2531.21 637.802 2540.27 634.202 2546.94 627.002C2553.61 619.535 2556.94 609.402 2556.94 596.602V476.201H2635.74V700.602H2556.94V668.602C2550.27 678.735 2541.07 687.001 2529.34 693.401C2517.61 699.535 2504.14 702.602 2488.94 702.602C2462.81 702.602 2442.14 694.068 2426.94 677.002C2412.01 659.669 2404.54 636.202 2404.54 606.602V476.201H2482.54V596.602ZM3906.88 596.602C3906.88 609.402 3910.22 619.535 3916.88 627.002C3923.82 634.202 3932.88 637.802 3944.08 637.802C3955.55 637.802 3964.62 634.202 3971.28 627.002C3977.95 619.535 3981.28 609.402 3981.28 596.602V476.201H4060.08V700.602H3981.28V668.602C3974.62 678.735 3965.42 687.001 3953.68 693.401C3941.95 699.535 3928.48 702.602 3913.28 702.602C3887.15 702.602 3866.48 694.068 3851.28 677.002C3836.35 659.669 3828.88 636.202 3828.88 606.602V476.201H3906.88V596.602ZM1779.4 700.602H1701V418.602H1779.4V700.602ZM1982.85 474.201C2008.71 474.201 2029.25 482.868 2044.45 500.201C2059.65 517.268 2067.25 540.468 2067.25 569.802V700.602H1988.85V580.201C1988.85 567.401 1985.51 557.401 1978.85 550.201C1972.18 542.735 1963.25 539.002 1952.05 539.002C1940.31 539.002 1931.11 542.735 1924.45 550.201C1917.78 557.401 1914.45 567.401 1914.45 580.201V700.602H1836.05V476.201H1914.45V508.201C1921.38 498.068 1930.71 489.935 1942.45 483.802C1954.18 477.402 1967.65 474.201 1982.85 474.201ZM3022.9 476.201H3063.7V541.401H3022.9V616.602C3022.9 622.735 3024.24 627.135 3026.9 629.802C3029.84 632.468 3034.64 633.802 3041.3 633.802H3064.1V700.602H3030.1C2972.77 700.602 2944.1 672.201 2944.1 615.401V541.401H2916.5V476.201H2944.1V421.802H3022.9V476.201ZM3262.86 557.802H3240.86C3223.8 557.802 3211.13 561.135 3202.86 567.802C3194.6 574.468 3190.46 586.068 3190.46 602.602V700.602H3112.06V476.201H3190.46V515.802C3199.26 503.002 3209.93 492.868 3222.46 485.401C3235 477.935 3248.46 474.201 3262.86 474.201V557.802ZM3789.48 481.002H3714.28V700.602H3635.88V481.002H3561.48V418.602H3789.48V481.002ZM4263.5 474.201C4289.37 474.201 4309.9 482.868 4325.1 500.201C4340.3 517.268 4347.9 540.468 4347.9 569.802V700.602H4269.5V580.201C4269.5 567.401 4266.17 557.401 4259.5 550.201C4252.84 542.735 4243.9 539.002 4232.7 539.002C4220.97 539.002 4211.77 542.735 4205.1 550.201C4198.44 557.401 4195.1 567.401 4195.1 580.201V700.602H4116.7V476.201H4195.1V508.201C4202.04 498.068 4211.37 489.935 4223.1 483.802C4234.84 477.402 4248.3 474.201 4263.5 474.201ZM4812.21 557.802H4790.21C4773.14 557.802 4760.47 561.135 4752.21 567.802C4743.94 574.468 4739.81 586.068 4739.81 602.602V700.602H4661.41V476.201H4739.81V515.802C4748.61 503.002 4759.27 492.868 4771.81 485.401C4784.34 477.935 4797.81 474.201 4812.21 474.201V557.802ZM2230.27 541.802C2218.53 541.802 2208.8 545.935 2201.07 554.201C2193.33 562.201 2189.46 573.535 2189.46 588.201C2189.46 602.601 2193.33 614.068 2201.07 622.602C2208.8 630.868 2218.53 635.002 2230.27 635.002C2241.73 635.002 2251.33 630.868 2259.07 622.602C2267.07 614.335 2271.07 602.868 2271.07 588.201C2271.07 573.801 2267.07 562.468 2259.07 554.201C2251.33 545.935 2241.73 541.802 2230.27 541.802ZM4503.72 535.401C4494.12 535.401 4486.25 538.068 4480.12 543.401C4473.99 548.468 4469.99 556.068 4468.12 566.201H4537.32C4537.32 556.601 4534.12 549.135 4527.72 543.802C4521.32 538.202 4513.32 535.401 4503.72 535.401Z" fill="white"/>
</svg>
