<svg width="24" height="24" viewBox="0 0 24 24" fill="none" xmlns="http://www.w3.org/2000/svg">
<path d="M16.7667 20.9575H6.90365C3.30365 20.9575 1.23242 18.8863 1.23242 15.2863V8.38217C1.23242 4.78217 3.30365 2.71094 6.90365 2.71094H16.7667C20.3667 2.71094 22.4379 4.78217 22.4379 8.38217V15.2863C22.4379 18.8863 20.3667 20.9575 16.7667 20.9575ZM6.90365 4.19039C4.08283 4.19039 2.71187 5.56135 2.71187 8.38217V15.2863C2.71187 18.1071 4.08283 19.4781 6.90365 19.4781H16.7667C19.5875 19.4781 20.9584 18.1071 20.9584 15.2863V8.38217C20.9584 5.56135 19.5875 4.19039 16.7667 4.19039H6.90365Z" fill="#090909"/>
<path d="M11.8353 15.534C9.7937 15.534 8.13672 13.877 8.13672 11.8353C8.13672 9.7937 9.7937 8.13672 11.8353 8.13672C13.877 8.13672 15.534 9.7937 15.534 11.8353C15.534 13.877 13.877 15.534 11.8353 15.534ZM11.8353 9.61617C10.6123 9.61617 9.61617 10.6123 9.61617 11.8353C9.61617 13.0584 10.6123 14.0545 11.8353 14.0545C13.0584 14.0545 14.0545 13.0584 14.0545 11.8353C14.0545 10.6123 13.0584 9.61617 11.8353 9.61617Z" fill="#090909"/>
<path d="M5.4243 15.0399C5.01991 15.0399 4.68457 14.7045 4.68457 14.3001V9.36863C4.68457 8.96425 5.01991 8.62891 5.4243 8.62891C5.82868 8.62891 6.16402 8.96425 6.16402 9.36863V14.3001C6.16402 14.7045 5.82868 15.0399 5.4243 15.0399Z" fill="#090909"/>
<path d="M18.2466 15.0399C17.8422 15.0399 17.5068 14.7045 17.5068 14.3001V9.36863C17.5068 8.96425 17.8422 8.62891 18.2466 8.62891C18.6509 8.62891 18.9863 8.96425 18.9863 9.36863V14.3001C18.9863 14.7045 18.6509 15.0399 18.2466 15.0399Z" fill="#090909"/>
</svg>
