<svg width="20" height="20" viewBox="0 0 20 20" fill="none" xmlns="http://www.w3.org/2000/svg">
<path d="M13.637 18.0114H3.125C1.83059 18.0114 0.78125 16.9621 0.78125 15.6677V7.84766C0.78125 6.55324 1.83059 5.50391 3.125 5.50391H13.637C14.9314 5.50391 15.9807 6.55324 15.9807 7.84766V15.6677C15.9807 16.9621 14.9314 18.0114 13.637 18.0114Z" stroke="#404040" stroke-miterlimit="10" stroke-linecap="round" stroke-linejoin="round"/>
<path d="M15.9807 8.64453H0.78125V11.7429H15.9807V8.64453Z" stroke="#404040" stroke-miterlimit="10" stroke-linecap="round" stroke-linejoin="round"/>
<path d="M3.70801 14.6562H6.57699" stroke="#404040" stroke-miterlimit="10" stroke-linecap="round" stroke-linejoin="round"/>
<path d="M12.4746 14.6562H13.0539" stroke="#404040" stroke-miterlimit="10" stroke-linecap="round" stroke-linejoin="round"/>
<path d="M9.4209 14.6562H10.0002" stroke="#404040" stroke-miterlimit="10" stroke-linecap="round" stroke-linejoin="round"/>
<path d="M15.9805 14.4949H16.8748C18.1692 14.4949 19.2185 13.4456 19.2185 12.1512V12.1445" stroke="#404040" stroke-miterlimit="10" stroke-linecap="round" stroke-linejoin="round"/>
<path d="M19.219 8.23914V4.33203C19.219 3.03762 18.1696 1.98828 16.8752 1.98828H6.36328C5.06887 1.98828 4.01953 3.03762 4.01953 4.33203V5.28949" stroke="#404040" stroke-miterlimit="10" stroke-linecap="round" stroke-linejoin="round"/>
</svg>
