<svg width="24" height="24" viewBox="0 0 24 24" fill="none" xmlns="http://www.w3.org/2000/svg">
<path fill-rule="evenodd" clip-rule="evenodd" d="M16.4358 15.0844L20.3758 19.0944C20.5523 19.2852 20.6476 19.5372 20.6414 19.797C20.6353 20.0569 20.5283 20.3041 20.3431 20.4864C20.1578 20.6686 19.9088 20.7716 19.6489 20.7735C19.389 20.7754 19.1386 20.676 18.9508 20.4964L15.0128 16.4904C13.4933 17.6351 11.5956 18.1595 9.70403 17.9576C7.81242 17.7557 6.06821 16.8426 4.82457 15.403C3.58094 13.9634 2.93081 12.1051 3.00584 10.2042C3.08087 8.30333 3.87544 6.50199 5.22867 5.16493C6.5819 3.82787 8.39266 3.055 10.2943 3.00282C12.1959 2.95065 14.0464 3.62306 15.4709 4.8839C16.8954 6.14475 17.7875 7.89981 17.9667 9.79371C18.1458 11.6876 17.5986 13.5788 16.4358 15.0844ZM10.4998 15.9994C11.9584 15.9994 13.3574 15.42 14.3888 14.3885C15.4203 13.3571 15.9998 11.9581 15.9998 10.4994C15.9998 9.04073 15.4203 7.64178 14.3888 6.61033C13.3574 5.57888 11.9584 4.99942 10.4998 4.99942C9.04106 4.99942 7.64212 5.57888 6.61067 6.61033C5.57922 7.64178 4.99976 9.04073 4.99976 10.4994C4.99976 11.9581 5.57922 13.3571 6.61067 14.3885C7.64212 15.42 9.04106 15.9994 10.4998 15.9994Z" fill="#3F3F3F"/>
</svg>
