<svg width="100" height="100" viewBox="0 0 100 100" fill="none" xmlns="http://www.w3.org/2000/svg">
<g clip-path="url(#clip0_3765_25243)">
<path d="M85.4292 57.4096C85.0073 56.7396 84.2923 56.3166 83.4945 56.3674C83.4703 56.3689 83.4456 56.371 83.4215 56.3731C82.334 56.4813 81.4727 57.4808 81.4209 58.6932C81.4011 59.1682 81.5024 59.6142 81.6925 59.9966C81.7842 60.1806 81.8958 60.3496 82.0249 60.5005V60.501C82.1268 60.6193 82.2387 60.7267 82.3594 60.8205C82.6528 61.0486 82.8369 61.4087 82.8793 61.8004L82.7774 61.8021C82.7481 61.8026 82.7211 61.8165 82.7022 61.8381C82.6987 61.8421 82.6958 61.8466 82.6923 61.8512C82.6795 61.871 82.6718 61.8958 82.6721 61.9227C82.6729 61.9883 82.7216 62.0412 82.7805 62.0403C82.7513 62.0408 82.7243 62.0547 82.7054 62.0763C82.7034 62.0786 82.702 62.0808 82.7 62.0831C82.6842 62.1046 82.6749 62.1317 82.6753 62.1609C82.6762 62.2264 82.7248 62.2794 82.7838 62.2784C82.7545 62.2789 82.7275 62.2928 82.7087 62.315C82.7057 62.3184 82.7027 62.3223 82.6998 62.3263C82.6864 62.3467 82.6782 62.3726 82.6786 62.3995C82.6794 62.4645 82.728 62.5175 82.787 62.5165C82.7578 62.5169 82.7307 62.5309 82.7119 62.553C82.7104 62.5547 82.7094 62.5558 82.7085 62.5576C82.6916 62.5785 82.6814 62.6067 82.6818 62.6376C82.6827 62.7031 82.7313 62.7556 82.7903 62.7546L82.9007 62.7528C82.9021 62.782 82.9043 62.8109 82.9084 62.8395C82.9231 62.9385 82.9543 63.0312 82.9983 63.1142C83.0066 63.13 83.0154 63.1453 83.0246 63.1603C83.0292 63.1678 83.0341 63.1749 83.039 63.1822C83.0454 63.192 83.052 63.2016 83.0588 63.211C83.0638 63.2179 83.0688 63.2247 83.074 63.2314C83.0823 63.242 83.0908 63.2523 83.0995 63.2625C83.1036 63.2672 83.1075 63.2721 83.1116 63.2767C83.1243 63.2907 83.1374 63.304 83.151 63.3169C83.1557 63.3214 83.1606 63.3256 83.1654 63.33C83.1754 63.3391 83.1857 63.3479 83.1961 63.3564C83.2015 63.3607 83.2068 63.365 83.2122 63.3692C83.2246 63.3787 83.2374 63.3877 83.2503 63.3963C83.2535 63.3985 83.2566 63.4008 83.2598 63.4028C83.2758 63.4131 83.2923 63.4226 83.309 63.4315C83.3142 63.4342 83.3195 63.4367 83.3247 63.4393C83.3373 63.4456 83.3501 63.4515 83.363 63.457C83.3687 63.4594 83.3743 63.4618 83.3801 63.4641C83.3963 63.4705 83.4128 63.4763 83.4294 63.4813C83.4314 63.4819 83.4332 63.4826 83.4351 63.4832C83.4537 63.4886 83.4726 63.493 83.4917 63.4968C83.4973 63.498 83.5029 63.4988 83.5086 63.4998C83.523 63.5023 83.5376 63.5043 83.5523 63.5058C83.5582 63.5064 83.564 63.507 83.5699 63.5075C83.5898 63.509 83.6099 63.5099 83.6301 63.5096L83.7506 63.5076C83.9497 63.5043 84.1289 63.4117 84.257 63.2645C84.3623 63.1445 84.4333 62.9881 84.4546 62.814C84.4563 62.799 84.4575 62.7839 84.4584 62.7687C84.4592 62.755 84.4597 62.7414 84.46 62.7277C84.46 62.7275 84.46 62.7273 84.46 62.7271L84.5603 62.7254C84.5896 62.7249 84.6166 62.711 84.6354 62.6894C84.6548 62.6672 84.6665 62.6379 84.6661 62.6048C84.6657 62.574 84.6547 62.5462 84.6368 62.5258C84.6173 62.5014 84.5884 62.4868 84.5571 62.4873C84.5864 62.4868 84.6134 62.4729 84.6322 62.4513C84.6516 62.4291 84.6633 62.3992 84.6629 62.3667C84.6625 62.3399 84.6536 62.3142 84.6393 62.2943C84.6192 62.2666 84.5882 62.2486 84.5539 62.2492C84.5832 62.2487 84.6102 62.2348 84.6291 62.2126C84.6484 62.191 84.6602 62.1606 84.6597 62.128C84.6593 62.0989 84.6494 62.0722 84.6325 62.0511C84.6124 62.0262 84.583 62.0105 84.5508 62.011C84.58 62.0105 84.6071 61.9966 84.6259 61.9745C84.6453 61.9529 84.657 61.9229 84.6565 61.8899C84.6562 61.863 84.6478 61.8385 84.6339 61.8191C84.6138 61.7903 84.5824 61.7723 84.5476 61.7729L84.4462 61.7746C84.4782 61.3817 84.6528 61.0155 84.9395 60.7773C85.487 60.3234 85.8376 59.5941 85.8267 58.7766C85.8198 58.2678 85.6739 57.7972 85.4292 57.4096Z" fill="white"/>
<path d="M58.6272 14.7474C59.1705 15.6025 60.1827 15.862 61.0032 15.4173L63.0201 18.5916L63.515 18.2031L61.4983 15.0292C62.152 14.3191 62.2688 13.1723 61.7246 12.3157C61.1209 11.3656 59.9374 11.1355 59.0827 11.8066C58.228 12.4776 58.0235 13.7974 58.6272 14.7474ZM61.388 12.58C61.8581 13.3199 61.6982 14.3528 61.0325 14.8754C60.3631 15.4009 59.4377 15.2201 58.9676 14.4802C58.4948 13.7362 58.6536 12.7105 59.323 12.1849C59.9887 11.6623 60.9152 11.836 61.388 12.58Z" fill="white"/>
<path d="M79.0718 93.6945C79.0718 93.6945 81.093 84.7325 86.1314 81.9666C91.1697 79.2007 96.5472 82.9874 95.1817 86.9692C94.0043 90.4027 89.1627 86.1809 85.3956 87.8411C81.6286 89.5013 81.0348 93.6945 81.0348 93.6945H79.0718Z" fill="#40A87B"/>
<path d="M94.2079 84.5825C94.2079 84.5825 88.8005 81.157 84.7885 84.324C80.7765 87.491 79.5068 93.6956 79.5068 93.6956" stroke="#6ADB6A" stroke-width="0.5" stroke-miterlimit="10"/>
<path d="M93.3357 82.9805L92.0776 83.5901" stroke="#6ADB6A" stroke-width="0.5" stroke-miterlimit="10"/>
<path d="M91.5186 81.6719L89.0127 82.9783" stroke="#6ADB6A" stroke-width="0.5" stroke-miterlimit="10"/>
<path d="M87.7539 81.6719L86.4502 83.3837" stroke="#6ADB6A" stroke-width="0.5" stroke-miterlimit="10"/>
<path d="M85.2823 82.8203L84.6963 84.3968" stroke="#6ADB6A" stroke-width="0.5" stroke-miterlimit="10"/>
<path d="M92.7067 86.7626L90.7754 83.2109" stroke="#6ADB6A" stroke-width="0.5" stroke-miterlimit="10"/>
<path d="M89.2943 86.2521L87.5229 83.0898" stroke="#6ADB6A" stroke-width="0.5" stroke-miterlimit="10"/>
<path d="M86.2856 85.7703L83.6226 85.4023" stroke="#6ADB6A" stroke-width="0.5" stroke-miterlimit="10"/>
<path d="M83.1851 87.5625L81.6587 88.1196" stroke="#6ADB6A" stroke-width="0.5" stroke-miterlimit="10"/>
<path d="M77.3382 93.7208C77.3382 93.7208 75.912 63.6803 88.8201 67.5514C101.728 71.4226 78.7511 87.613 78.7706 93.7208H77.3382Z" fill="#6ADB6A"/>
<path d="M77.8599 93.7215C77.8599 93.7215 78.3105 78.0263 87.5119 70.2656" stroke="#40A87B" stroke-width="0.5" stroke-miterlimit="10"/>
<path d="M83.4761 74.8145L83.706 69.4023" stroke="#40A87B" stroke-width="0.5" stroke-miterlimit="10"/>
<path d="M90.6954 72.5742L84.4761 73.4753" stroke="#40A87B" stroke-width="0.5" stroke-miterlimit="10"/>
<path d="M88.2765 77.1914L81.7007 78.0431" stroke="#40A87B" stroke-width="0.5" stroke-miterlimit="10"/>
<path d="M84.9887 81.7695L79.9097 82.5674" stroke="#40A87B" stroke-width="0.5" stroke-miterlimit="10"/>
<path d="M79.4224 77.4922L80.5865 80.6362" stroke="#40A87B" stroke-width="0.5" stroke-miterlimit="10"/>
<path d="M81.3354 72.3906L82.3279 76.8169" stroke="#40A87B" stroke-width="0.5" stroke-miterlimit="10"/>
<path d="M78.3359 82.7422L79.2634 84.797" stroke="#40A87B" stroke-width="0.5" stroke-miterlimit="10"/>
<path d="M82.328 86.0117L78.6885 87.2872" stroke="#40A87B" stroke-width="0.5" stroke-miterlimit="10"/>
<path d="M13.1785 93.7007C13.1785 93.7007 11.5475 86.4688 7.48183 84.2369C3.41615 82.005 -0.923187 85.0606 0.178701 88.2737C1.12884 91.0443 5.03574 87.6376 8.07557 88.9773C11.1154 90.317 11.5946 93.7008 11.5946 93.7008H13.1785V93.7007Z" fill="#40A87B"/>
<path d="M0.964355 86.3474C0.964355 86.3474 5.32787 83.5833 8.56538 86.1388C11.8028 88.6944 12.8274 93.7013 12.8274 93.7013" stroke="#6ADB6A" stroke-width="0.5" stroke-miterlimit="10"/>
<path d="M1.66846 85.0547L2.68368 85.5466" stroke="#6ADB6A" stroke-width="0.5" stroke-miterlimit="10"/>
<path d="M3.13477 84L5.15689 85.0542" stroke="#6ADB6A" stroke-width="0.5" stroke-miterlimit="10"/>
<path d="M6.17285 84L7.22487 85.3813" stroke="#6ADB6A" stroke-width="0.5" stroke-miterlimit="10"/>
<path d="M8.16699 84.9258L8.6399 86.1979" stroke="#6ADB6A" stroke-width="0.5" stroke-miterlimit="10"/>
<path d="M2.17578 88.1082L3.73428 85.2422" stroke="#6ADB6A" stroke-width="0.5" stroke-miterlimit="10"/>
<path d="M4.9292 87.6963L6.35861 85.1445" stroke="#6ADB6A" stroke-width="0.5" stroke-miterlimit="10"/>
<path d="M7.35742 87.3046L9.50637 87.0078" stroke="#6ADB6A" stroke-width="0.5" stroke-miterlimit="10"/>
<path d="M9.85938 88.7539L11.0911 89.2035" stroke="#6ADB6A" stroke-width="0.5" stroke-miterlimit="10"/>
<path d="M14.5775 93.7233C14.5775 93.7233 15.7284 69.4822 5.31224 72.606C-5.10395 75.7299 13.4374 88.7947 13.4217 93.7233H14.5775Z" fill="#6ADB6A"/>
<path d="M14.1568 93.7246C14.1568 93.7246 13.7932 81.0594 6.36816 74.7969" stroke="#40A87B" stroke-width="0.5" stroke-miterlimit="10"/>
<path d="M9.6245 78.4689L9.43896 74.1016" stroke="#40A87B" stroke-width="0.5" stroke-miterlimit="10"/>
<path d="M3.79932 76.6602L8.81794 77.3873" stroke="#40A87B" stroke-width="0.5" stroke-miterlimit="10"/>
<path d="M5.75098 80.3867L11.0573 81.0739" stroke="#40A87B" stroke-width="0.5" stroke-miterlimit="10"/>
<path d="M8.40381 84.0781L12.5024 84.7219" stroke="#40A87B" stroke-width="0.5" stroke-miterlimit="10"/>
<path d="M12.8955 80.6289L11.9561 83.1659" stroke="#40A87B" stroke-width="0.5" stroke-miterlimit="10"/>
<path d="M11.3522 76.5117L10.5513 80.0835" stroke="#40A87B" stroke-width="0.5" stroke-miterlimit="10"/>
<path d="M13.7723 84.8633L13.0239 86.5215" stroke="#40A87B" stroke-width="0.5" stroke-miterlimit="10"/>
<path d="M10.5513 87.5039L13.4882 88.5332" stroke="#40A87B" stroke-width="0.5" stroke-miterlimit="10"/>
<path d="M10.6426 56.9913C10.6426 54.9747 9.17189 53.3398 7.3577 53.3398C5.54345 53.3398 4.07275 54.9746 4.07275 56.9913C4.07275 57.706 4.26029 58.3705 4.57945 58.9335L4.57696 58.9352L7.3577 63.8825L10.1384 58.9352L10.1359 58.9335C10.4552 58.3705 10.6426 57.706 10.6426 56.9913Z" fill="#088CFC"/>
<path d="M7.35781 60.0527C5.84011 60.0527 4.60547 58.6801 4.60547 56.993C4.60547 55.306 5.84011 53.9336 7.35781 53.9336C8.87552 53.9336 10.1102 55.306 10.1102 56.993C10.1102 58.6801 8.87552 60.0527 7.35781 60.0527Z" fill="white"/>
<path d="M8.83652 55.0391L7.13906 58.2415L7.12276 58.2724L6.21634 56.7275L5.60986 57.1676L6.83614 59.2565L7.13906 59.2484L7.45163 59.2404L9.46108 55.4463L8.83652 55.0391Z" fill="#088CFC"/>
<path d="M79.1517 43.7085V90.4538C79.1517 92.1525 77.9129 93.5295 76.3847 93.5295H16.3436C14.8155 93.5295 13.5767 92.1525 13.5767 90.4538V43.7085C13.5767 42.0098 14.8155 40.6328 16.3436 40.6328H76.3847C77.9129 40.6328 79.1517 42.0099 79.1517 43.7085Z" fill="#586773"/>
<path d="M73.3517 43.6963V90.4652C73.3517 90.5028 73.346 90.5405 73.3347 90.575C73.2952 90.7383 73.1597 90.8576 72.9986 90.8576H16.3339C16.1361 90.8576 15.978 90.6818 15.978 90.4652V43.6963C15.978 43.4766 16.1361 43.3008 16.3339 43.3008H72.9986C73.1935 43.3008 73.3517 43.4766 73.3517 43.6963Z" fill="#E5F0F8"/>
<path d="M71.3341 20.9062H17.9951V88.616H71.3341V20.9062Z" fill="white"/>
<path d="M76.2602 72.2881C75.5886 72.2881 75.0391 71.6773 75.0391 70.9308V63.2323C75.0391 62.4858 75.5886 61.875 76.2602 61.875C76.9318 61.875 77.4813 62.4858 77.4813 63.2323V70.9308C77.4813 71.6773 76.9318 72.2881 76.2602 72.2881Z" fill="#93ACBF"/>
<path d="M59.5474 26.043H31.0405V28.5837H59.5474V26.043Z" stroke="#BBDBF3" stroke-width="3.2415" stroke-miterlimit="10"/>
<path d="M59.5475 26.043H54.9902V28.5837H59.5475V26.043Z" fill="#BBDBF3" stroke="#BBDBF3" stroke-width="2.2662" stroke-miterlimit="10"/>
<path d="M68.4694 26.043H63.9121V28.5837H68.4694V26.043Z" fill="#BBDBF3" stroke="#BBDBF3" stroke-width="2.2662" stroke-miterlimit="10"/>
<path d="M56.4811 27.8335C56.8093 28.0372 57.2138 27.9368 57.4403 27.6197L58.6583 28.3762L58.7762 28.1416L57.5584 27.3852C57.6836 27.0044 57.5479 26.5691 57.2193 26.365C56.8547 26.1386 56.393 26.2823 56.1893 26.6876C55.9856 27.0928 56.1165 27.607 56.4811 27.8335ZM57.1391 26.5245C57.423 26.7008 57.5255 27.1033 57.3669 27.4189C57.2074 27.7363 56.8462 27.8484 56.5623 27.672C56.2768 27.4947 56.1749 27.095 56.3345 26.7777C56.4931 26.4621 56.8536 26.3472 57.1391 26.5245Z" fill="white"/>
<path d="M71.3341 20.9062H17.9951V24.7916H71.3341V20.9062Z" fill="#BBDBF3"/>
<path d="M67.8228 24.0453L69.9755 21.6523" stroke="white" stroke-width="6.3969" stroke-miterlimit="10" stroke-linecap="round" stroke-linejoin="round"/>
<path d="M69.9755 24.0453L67.8228 21.6523" stroke="white" stroke-width="6.3969" stroke-miterlimit="10" stroke-linecap="round" stroke-linejoin="round"/>
<path d="M31.6142 30.4023H17.9951V66.4199H31.6142V30.4023Z" fill="#E5F0F8"/>
<path d="M30.256 32.4219H19.354V33.2587H30.256V32.4219Z" fill="white"/>
<path d="M30.256 34.6328H19.354V35.4696H30.256V34.6328Z" fill="white"/>
<path d="M30.256 36.8438H19.354V37.6806H30.256V36.8438Z" fill="white"/>
<path d="M30.256 39.0547H19.354V39.8915H30.256V39.0547Z" fill="white"/>
<path d="M30.256 41.2656H19.354V42.1025H30.256V41.2656Z" fill="white"/>
<path d="M30.256 43.4766H19.354V44.3134H30.256V43.4766Z" fill="white"/>
<path d="M30.256 45.6875H19.354V46.5243H30.256V45.6875Z" fill="white"/>
<path d="M30.256 47.8984H19.354V48.7353H30.256V47.8984Z" fill="white"/>
<path d="M30.256 50.1133H19.354V50.9501H30.256V50.1133Z" fill="white"/>
<path d="M30.256 52.3242H19.354V53.161H30.256V52.3242Z" fill="white"/>
<path d="M30.256 54.5352H19.354V55.372H30.256V54.5352Z" fill="white"/>
<path d="M30.256 56.7461H19.354V57.5829H30.256V56.7461Z" fill="white"/>
<path d="M48.1904 61.8152V48.6211L32.7581 48.6211V61.8152L48.1904 61.8152Z" fill="#E5F0F8"/>
<path d="M43.904 55.021L38.1011 51.2969V58.7451L43.904 55.021Z" fill="white"/>
<path d="M48.1906 61.0977H32.7583V61.8158H48.1906V61.0977Z" fill="#E5F0F8"/>
<path d="M40.3336 61.0977H32.7583V61.8158H40.3336V61.0977Z" fill="#BBDBF3"/>
<path d="M40.8839 61.8158H39.9266C39.7489 61.8158 39.6035 61.6542 39.6035 61.4567C39.6035 61.2593 39.7489 61.0977 39.9266 61.0977H40.8839C41.0615 61.0977 41.2069 61.2593 41.2069 61.4567C41.2069 61.6542 41.0616 61.8158 40.8839 61.8158Z" fill="white"/>
<path d="M68.8992 30.4023H32.7583V47.6987H68.8992V30.4023Z" stroke="#E5F0F8" stroke-width="3.1362" stroke-miterlimit="10" stroke-linecap="round" stroke-linejoin="round" stroke-dasharray="9.41 9.41"/>
<path d="M68.8991 58.3438H49.4258V61.8127H68.8991V58.3438Z" fill="#E5F0F8"/>
<path d="M52.5289 60.0795L50.5303 58.7969V61.3623L52.5289 60.0795Z" fill="white"/>
<path d="M53.4194 60.0781H67.6255" stroke="white" stroke-width="2.3522" stroke-miterlimit="10"/>
<path d="M53.6819 59.4961H53.4194V60.663H53.6819V59.4961Z" fill="white"/>
<path d="M68.8991 53.4844H49.4258V56.9534H68.8991V53.4844Z" fill="#E5F0F8"/>
<path d="M52.5289 55.2202L50.5303 53.9375V56.5029L52.5289 55.2202Z" fill="white"/>
<path d="M53.4194 55.2188H67.6255" stroke="white" stroke-width="2.3522" stroke-miterlimit="10"/>
<path d="M53.6819 54.6367H53.4194V55.8036H53.6819V54.6367Z" fill="white"/>
<path d="M68.8991 48.6211H49.4258V52.0901H68.8991V48.6211Z" fill="#E5F0F8"/>
<path d="M52.5289 50.3569L50.5303 49.0742V51.6396L52.5289 50.3569Z" fill="white"/>
<path d="M53.4194 50.3555H67.6255" stroke="white" stroke-width="2.3522" stroke-miterlimit="10"/>
<path d="M53.6819 49.7734H53.4194V50.9403H53.6819V49.7734Z" fill="white"/>
<path d="M68.8992 63.5273H32.7583V86.6617H68.8992V63.5273Z" fill="#E5F0F8"/>
<path d="M68.8993 63.5273H32.7583V65.7342H68.8993V63.5273Z" fill="#BBDBF3"/>
<path d="M37.0402 67.6445H34.3789V68.577H37.0402V67.6445Z" fill="white"/>
<path d="M47.9258 67.6445H37.4136V68.577H47.9258V67.6445Z" fill="white"/>
<path d="M57.4485 67.6445H48.3438V68.577H57.4485V67.6445Z" fill="white"/>
<path d="M67.2784 67.6445H57.8223V68.577H67.2784V67.6445Z" fill="white"/>
<path d="M39.8991 69.4258H34.3789V70.3582H39.8991V69.4258Z" fill="white"/>
<path d="M50.1913 69.4258H40.3276V70.3582H50.1913V69.4258Z" fill="white"/>
<path d="M67.2785 69.4258H50.6196V70.3582H67.2785V69.4258Z" fill="white"/>
<path d="M42.8457 71.2031H34.3789V72.1356H42.8457V71.2031Z" fill="white"/>
<path d="M55.1835 71.2031H43.1978V72.1356H55.1835V71.2031Z" fill="white"/>
<path d="M67.2783 71.2031H55.645V72.1356H67.2783V71.2031Z" fill="white"/>
<path d="M44.7519 72.9844H34.3789V73.9168H44.7519V72.9844Z" fill="white"/>
<path d="M55.6323 72.9844H45.2593V73.9168H55.6323V72.9844Z" fill="white"/>
<path d="M67.2598 72.9844H56.0996V73.9168H67.2598V72.9844Z" fill="white"/>
<path d="M43.5204 74.7656H34.3789V75.6981H43.5204V74.7656Z" fill="white"/>
<path d="M57.0453 74.7656H43.9014V75.6981H57.0453V74.7656Z" fill="white"/>
<path d="M67.2596 74.7656H57.4482V75.6981H67.2596V74.7656Z" fill="white"/>
<path d="M39.122 76.5469H34.3789V77.4793H39.122V76.5469Z" fill="white"/>
<path d="M45.9395 76.5469H39.5654V77.4793H45.9395V76.5469Z" fill="white"/>
<path d="M56.5614 76.5469H46.4268V77.4793H56.5614V76.5469Z" fill="white"/>
<path d="M67.18 76.5469H57.0454V77.4793H67.18V76.5469Z" fill="white"/>
<path d="M45.0378 78.3242H34.3789V79.2567H45.0378V78.3242Z" fill="white"/>
<path d="M53.9882 78.3242H45.499V79.2567H53.9882V78.3242Z" fill="white"/>
<path d="M61.5534 78.3242H54.5156V79.2567H61.5534V78.3242Z" fill="white"/>
<path d="M67.1797 78.3242H61.9932V79.2567H67.1797V78.3242Z" fill="white"/>
<path d="M42.0763 80.1055H34.3789V81.0379H42.0763V80.1055Z" fill="white"/>
<path d="M29.4766 23.5146C29.5454 28.648 27.3432 33.2278 23.9052 36.079C21.8732 37.7667 20.735 40.4779 20.7728 43.2996L20.8067 45.8259L11.0608 45.9874L11.0269 43.4612C10.989 40.6394 9.78175 37.9672 7.7022 36.3512C6.94392 35.7619 6.24154 35.0873 5.60155 34.3448L5.6015 34.3413C4.79097 33.3939 4.08973 32.3322 3.51386 31.1769C2.31969 28.7754 1.68374 25.9741 1.80841 22.9912C2.13372 15.3772 7.54246 9.10076 14.3719 8.42098C14.5237 8.4079 14.6786 8.39476 14.8304 8.38522C19.8411 8.06639 24.3312 10.7229 26.9806 14.9302C28.5172 17.3648 29.4337 20.3198 29.4766 23.5146Z" fill="#F5D431"/>
<path d="M20.8974 48.1171C20.9008 48.3704 20.8883 48.6205 20.86 48.8673C20.7259 49.9605 20.2799 50.9427 19.6189 51.6962C18.8145 52.621 17.6889 53.2027 16.4385 53.2235L15.6821 53.236C13.4125 53.2736 11.5074 51.4471 11.1489 49.0283C11.114 48.7825 11.0948 48.533 11.0914 48.2796C11.088 48.0263 11.1005 47.7762 11.1289 47.533C11.2629 46.4398 11.7088 45.4575 12.3699 44.7005C13.1743 43.7757 14.2999 43.194 15.5471 43.1733L16.3035 43.1607C18.5762 43.1231 20.4813 44.9532 20.8399 47.3719C20.8748 47.6142 20.894 47.8638 20.8974 48.1171Z" fill="#BBDBF3"/>
<path d="M21.9554 45.0932C21.837 45.2325 21.6672 45.3198 21.4835 45.3227C21.6988 45.3192 21.8934 45.4321 22.0193 45.606C22.1095 45.7312 22.1656 45.8921 22.1678 46.061C22.1706 46.265 22.0971 46.4527 21.9754 46.592C21.857 46.7277 21.6872 46.815 21.5036 46.8181C21.6998 46.8148 21.8815 46.9069 22.0039 47.0596C22.1163 47.188 22.1853 47.3628 22.1879 47.5563C22.1907 47.7639 22.1172 47.9481 21.9955 48.0874C21.877 48.2231 21.7072 48.3104 21.5236 48.3135L20.8937 48.3239C20.8898 48.507 20.8797 48.6901 20.8599 48.8699C20.7258 49.9631 20.2798 50.9453 19.6188 51.6988C18.8144 52.6237 17.6888 53.2054 16.4384 53.2261L15.682 53.2386C13.9949 53.2666 12.5092 52.2636 11.7134 50.7565C12.8647 50.9134 14.3954 50.786 15.7945 49.5909C17.7634 47.9112 17.4295 44.2674 17.1038 42.404L21.4433 42.3321C21.6617 42.3285 21.8596 42.4413 21.9855 42.6223C22.0725 42.744 22.1253 42.898 22.1276 43.0668C22.1304 43.2745 22.0569 43.4622 21.9352 43.5979C21.8168 43.7372 21.647 43.8244 21.4634 43.8274C21.666 43.8241 21.8509 43.9231 21.9765 44.0793C22.0827 44.2113 22.1451 44.3792 22.1476 44.5622C22.1505 44.7662 22.0771 44.9575 21.9554 45.0932Z" fill="#A7ADC7"/>
<path d="M14.6477 43.5919C14.6477 43.5919 14.9224 23.4933 10.2286 25.2485C5.53487 27.0038 21.0344 32.7972 22.5208 26.3861C24.0072 19.975 16.5506 25.9995 16.6072 31.048C16.6638 36.0964 16.7797 43.9053 16.7797 43.9053" stroke="white" stroke-width="0.6" stroke-miterlimit="10"/>
<path d="M21.9554 45.0932C21.837 45.2325 21.6672 45.3198 21.4835 45.3227C21.6988 45.3192 21.8934 45.4321 22.0193 45.606C22.1095 45.7312 22.1656 45.8921 22.1678 46.061C22.1706 46.265 22.0971 46.4527 21.9754 46.592C21.857 46.7277 21.6872 46.815 21.5036 46.8181C21.6998 46.8148 21.8815 46.9069 22.0039 47.0596C22.1163 47.188 22.1853 47.3628 22.1879 47.5563C22.1907 47.7639 22.1172 47.9481 21.9955 48.0874C21.877 48.2231 21.7072 48.3104 21.5236 48.3135L20.8937 48.3239C20.8898 48.507 20.8797 48.6901 20.8599 48.8699C20.7258 49.9631 20.2798 50.9453 19.6188 51.6988C18.8144 52.6237 17.6888 53.2054 16.4384 53.2261L15.682 53.2386C13.9949 53.2666 12.5092 52.2636 11.7134 50.7565C12.8647 50.9134 14.3954 50.786 15.7945 49.5909C17.7634 47.9112 17.4295 44.2674 17.1038 42.404L21.4433 42.3321C21.6617 42.3285 21.8596 42.4413 21.9855 42.6223C22.0725 42.744 22.1253 42.898 22.1276 43.0668C22.1304 43.2745 22.0569 43.4622 21.9352 43.5979C21.8168 43.7372 21.647 43.8244 21.4634 43.8274C21.666 43.8241 21.8509 43.9231 21.9765 44.0793C22.0827 44.2113 22.1451 44.3792 22.1476 44.5622C22.1505 44.7662 22.0771 44.9575 21.9554 45.0932Z" fill="#93ACBF"/>
<path d="M20.8974 48.1201C20.9008 48.3734 20.8883 48.6235 20.86 48.8703L11.1489 49.0313C11.114 48.7855 11.0948 48.5359 11.0914 48.2826C11.088 48.0293 11.1005 47.7792 11.1289 47.5359L20.8399 47.375C20.8748 47.6172 20.894 47.8668 20.8974 48.1201Z" fill="#93ACBF"/>
<path d="M22.1879 47.5547C22.1907 47.7623 22.1172 47.9465 21.9955 48.0858C21.877 48.2215 21.7073 48.3088 21.5236 48.3118L10.4072 48.4961C10.0368 48.5022 9.73165 48.1729 9.72615 47.7613C9.72356 47.5678 9.78767 47.3907 9.89356 47.2588C9.89976 47.2481 9.90597 47.241 9.91536 47.2303C10.0338 47.0911 10.2036 47.0038 10.3872 47.0008L21.5036 46.8165C21.6999 46.8132 21.8815 46.9053 22.0039 47.0581C22.1164 47.1864 22.1853 47.3612 22.1879 47.5547Z" fill="#BBDBF3"/>
<path d="M22.1278 43.0669C22.1306 43.2745 22.0571 43.4622 21.9354 43.598C21.817 43.7372 21.6473 43.8245 21.4636 43.8275L10.3472 44.0118C9.97683 44.0179 9.6716 43.6851 9.66609 43.2734C9.66383 43.1046 9.71234 42.9489 9.79307 42.8244C9.81477 42.7959 9.83344 42.7674 9.8553 42.7424C9.97376 42.6067 10.1435 42.5195 10.3272 42.5164L21.4436 42.3321C21.662 42.3285 21.8598 42.4414 21.9857 42.6223C22.0728 42.7441 22.1256 42.898 22.1278 43.0669Z" fill="#BBDBF3"/>
<path d="M22.1478 44.5631C22.1506 44.7671 22.0772 44.9584 21.9555 45.0941C21.8371 45.2334 21.6673 45.3206 21.4836 45.3236L10.3672 45.5079C9.99685 45.514 9.69161 45.1813 9.68611 44.7696C9.68368 44.5866 9.74159 44.4167 9.84105 44.2814C9.85351 44.2671 9.86285 44.2529 9.87532 44.2385C9.99377 44.1028 10.1636 44.0156 10.3472 44.0125L21.4636 43.8282C21.6662 43.8248 21.8511 43.9238 21.9767 44.0801C22.0829 44.2122 22.1454 44.3801 22.1478 44.5631Z" fill="#BBDBF3"/>
<path d="M21.9856 42.6223C21.967 42.6508 21.9452 42.6793 21.9234 42.7043C21.805 42.8435 21.6352 42.9308 21.4515 42.9338L10.3351 43.1181C10.1167 43.1217 9.91882 43.0053 9.79297 42.8244C9.81466 42.7959 9.83334 42.7674 9.85519 42.7424C9.97365 42.6067 10.1434 42.5195 10.3271 42.5164L21.4435 42.3321C21.6619 42.3285 21.8597 42.4414 21.9856 42.6223Z" fill="#93ACBF"/>
<path d="M21.977 44.0802C21.9676 44.0944 21.9552 44.1087 21.9427 44.123C21.8243 44.2622 21.6545 44.3495 21.4709 44.3525L10.3545 44.5368C10.1519 44.5401 9.96694 44.4412 9.84131 44.2813C9.85377 44.2671 9.86311 44.2529 9.87558 44.2385C9.99403 44.1028 10.1638 44.0155 10.3475 44.0125L21.4639 43.8282C21.6665 43.825 21.8514 43.9239 21.977 44.0802Z" fill="#93ACBF"/>
<path d="M22.1679 46.0586C22.1706 46.2627 22.0972 46.4504 21.9755 46.5897C21.857 46.7254 21.6872 46.8127 21.5036 46.8157L10.3872 47C10.0168 47.0061 9.71158 46.6734 9.70613 46.2652C9.70386 46.0963 9.75556 45.9336 9.83932 45.8055C9.85793 45.7806 9.87661 45.7556 9.89533 45.7342C10.0137 45.595 10.1836 45.5077 10.3672 45.5047L21.4836 45.3204C21.6988 45.3169 21.8934 45.4297 22.0193 45.6036C22.1096 45.7288 22.1657 45.8897 22.1679 46.0586Z" fill="#BBDBF3"/>
<path d="M22.0193 45.6036C22.0038 45.6285 21.9851 45.6534 21.9633 45.6784C21.8449 45.8141 21.6751 45.9014 21.4914 45.9044L10.375 46.0887C10.1598 46.0923 9.96521 45.9829 9.83936 45.8055C9.85797 45.7806 9.87665 45.7556 9.89537 45.7342C10.0138 45.595 10.1836 45.5077 10.3672 45.5047L21.4836 45.3204C21.6989 45.3168 21.8935 45.4297 22.0193 45.6036Z" fill="#93ACBF"/>
<path d="M22.0039 47.058C21.9946 47.0687 21.9883 47.0759 21.9821 47.083C21.8637 47.2223 21.6939 47.3095 21.5102 47.3125L10.3938 47.4968C10.1975 47.5001 10.0191 47.408 9.89355 47.2588C9.89976 47.2481 9.90597 47.241 9.91536 47.2303C10.0338 47.0911 10.2036 47.0038 10.3872 47.0008L21.5036 46.8165C21.6999 46.8131 21.8815 46.9052 22.0039 47.058Z" fill="#93ACBF"/>
<path d="M14.3719 8.42247C14.5237 8.40939 14.6786 8.39626 14.8304 8.38672C13.2108 9.43063 11.3871 10.8404 9.38963 12.7457C3.20026 18.655 3.15994 27.2145 3.51386 31.1784C2.31969 28.7769 1.68374 25.9756 1.80841 22.9927C2.13372 15.3787 7.54246 9.10226 14.3719 8.42247Z" fill="#C8A707"/>
<path d="M0.838214 44.707H0.000976562V47.2486H0.838214V44.707Z" fill="#E5F0F8"/>
<path d="M2.16438 43.4023H1.32715V47.2511H2.16438V43.4023Z" fill="#E5F0F8"/>
<path d="M3.49056 41.4531H2.65332V47.2483H3.49056V41.4531Z" fill="#E5F0F8"/>
<path d="M4.81624 42.6562H3.979V47.2507H4.81624V42.6562Z" fill="#E5F0F8"/>
<path d="M6.14241 43.1602H5.30518V47.2482H6.14241V43.1602Z" fill="#E5F0F8"/>
<path d="M7.46858 42.168H6.63135V47.2511H7.46858V42.168Z" fill="#E5F0F8"/>
<path d="M8.79476 41.0352H7.95752V47.2493H8.79476V41.0352Z" fill="#E5F0F8"/>
<path d="M91.7544 9.73734L63.7739 54.0156L72.0456 60.4742L100.026 16.196L91.7544 9.73734Z" fill="#C87629"/>
<path d="M91.7544 9.73735L63.7739 54.0156L71.7945 60.2781L99.7749 15.9998L91.7544 9.73735Z" fill="#F5D431"/>
<path d="M67.6883 55.1135L65.1567 53.1367" stroke="#C87629" stroke-width="0.2" stroke-miterlimit="10"/>
<path d="M66.8981 53.3712L65.6323 52.3828" stroke="#C87629" stroke-width="0.2" stroke-miterlimit="10"/>
<path d="M67.3737 52.6212L66.1079 51.6328" stroke="#C87629" stroke-width="0.2" stroke-miterlimit="10"/>
<path d="M67.8487 51.8673L66.583 50.8789" stroke="#C87629" stroke-width="0.2" stroke-miterlimit="10"/>
<path d="M69.5901 52.1057L67.0586 50.1289" stroke="#C87629" stroke-width="0.2" stroke-miterlimit="10"/>
<path d="M68.7995 50.3634L67.5337 49.375" stroke="#C87629" stroke-width="0.2" stroke-miterlimit="10"/>
<path d="M69.2751 49.6134L68.0093 48.625" stroke="#C87629" stroke-width="0.2" stroke-miterlimit="10"/>
<path d="M69.7506 48.8595L68.4849 47.8711" stroke="#C87629" stroke-width="0.2" stroke-miterlimit="10"/>
<path d="M71.4915 49.094L68.96 47.1172" stroke="#C87629" stroke-width="0.2" stroke-miterlimit="10"/>
<path d="M70.7013 47.3556L69.4355 46.3672" stroke="#C87629" stroke-width="0.2" stroke-miterlimit="10"/>
<path d="M71.1769 46.6017L69.9111 45.6133" stroke="#C87629" stroke-width="0.2" stroke-miterlimit="10"/>
<path d="M71.652 45.8516L70.3862 44.8633" stroke="#C87629" stroke-width="0.2" stroke-miterlimit="10"/>
<path d="M73.3933 46.0862L70.8618 44.1094" stroke="#C87629" stroke-width="0.2" stroke-miterlimit="10"/>
<path d="M72.6027 44.3438L71.3369 43.3555" stroke="#C87629" stroke-width="0.2" stroke-miterlimit="10"/>
<path d="M73.0783 43.5938L71.8125 42.6055" stroke="#C87629" stroke-width="0.2" stroke-miterlimit="10"/>
<path d="M73.5539 42.84L72.2881 41.8516" stroke="#C87629" stroke-width="0.2" stroke-miterlimit="10"/>
<path d="M75.2947 43.0783L72.7632 41.1016" stroke="#C87629" stroke-width="0.2" stroke-miterlimit="10"/>
<path d="M74.5046 41.3361L73.2388 40.3477" stroke="#C87629" stroke-width="0.2" stroke-miterlimit="10"/>
<path d="M74.9801 40.5861L73.7144 39.5977" stroke="#C87629" stroke-width="0.2" stroke-miterlimit="10"/>
<path d="M75.4552 39.8321L74.1895 38.8438" stroke="#C87629" stroke-width="0.2" stroke-miterlimit="10"/>
<path d="M77.1966 40.0666L74.665 38.0898" stroke="#C87629" stroke-width="0.2" stroke-miterlimit="10"/>
<path d="M76.4059 38.3282L75.1401 37.3398" stroke="#C87629" stroke-width="0.2" stroke-miterlimit="10"/>
<path d="M76.8815 37.5743L75.6157 36.5859" stroke="#C87629" stroke-width="0.2" stroke-miterlimit="10"/>
<path d="M77.3571 36.8244L76.0913 35.8359" stroke="#C87629" stroke-width="0.2" stroke-miterlimit="10"/>
<path d="M79.098 37.0588L76.5664 35.082" stroke="#C87629" stroke-width="0.2" stroke-miterlimit="10"/>
<path d="M78.3077 35.3204L77.042 34.332" stroke="#C87629" stroke-width="0.2" stroke-miterlimit="10"/>
<path d="M78.7833 34.5665L77.5176 33.5781" stroke="#C87629" stroke-width="0.2" stroke-miterlimit="10"/>
<path d="M79.2585 33.8126L77.9927 32.8242" stroke="#C87629" stroke-width="0.2" stroke-miterlimit="10"/>
<path d="M80.9998 34.051L78.4683 32.0742" stroke="#C87629" stroke-width="0.2" stroke-miterlimit="10"/>
<path d="M80.2091 32.3087L78.9434 31.3203" stroke="#C87629" stroke-width="0.2" stroke-miterlimit="10"/>
<path d="M80.6847 31.5587L79.4189 30.5703" stroke="#C87629" stroke-width="0.2" stroke-miterlimit="10"/>
<path d="M81.1603 30.8048L79.8945 29.8164" stroke="#C87629" stroke-width="0.2" stroke-miterlimit="10"/>
<path d="M82.9012 31.0393L80.3696 29.0625" stroke="#C87629" stroke-width="0.2" stroke-miterlimit="10"/>
<path d="M82.111 29.3009L80.8452 28.3125" stroke="#C87629" stroke-width="0.2" stroke-miterlimit="10"/>
<path d="M82.5865 28.547L81.3208 27.5586" stroke="#C87629" stroke-width="0.2" stroke-miterlimit="10"/>
<path d="M83.0617 27.797L81.7959 26.8086" stroke="#C87629" stroke-width="0.2" stroke-miterlimit="10"/>
<path d="M84.803 28.0315L82.2715 26.0547" stroke="#C87629" stroke-width="0.2" stroke-miterlimit="10"/>
<path d="M84.0124 26.2931L82.7466 25.3047" stroke="#C87629" stroke-width="0.2" stroke-miterlimit="10"/>
<path d="M84.4879 25.5392L83.2222 24.5508" stroke="#C87629" stroke-width="0.2" stroke-miterlimit="10"/>
<path d="M84.9635 24.7853L83.6978 23.7969" stroke="#C87629" stroke-width="0.2" stroke-miterlimit="10"/>
<path d="M86.7044 25.0237L84.1729 23.0469" stroke="#C87629" stroke-width="0.2" stroke-miterlimit="10"/>
<path d="M85.9142 23.2814L84.6484 22.293" stroke="#C87629" stroke-width="0.2" stroke-miterlimit="10"/>
<path d="M86.3898 22.5314L85.124 21.543" stroke="#C87629" stroke-width="0.2" stroke-miterlimit="10"/>
<path d="M86.8649 21.7774L85.5991 20.7891" stroke="#C87629" stroke-width="0.2" stroke-miterlimit="10"/>
<path d="M88.6062 22.0158L86.0747 20.0391" stroke="#C87629" stroke-width="0.2" stroke-miterlimit="10"/>
<path d="M87.8156 20.2735L86.5498 19.2852" stroke="#C87629" stroke-width="0.2" stroke-miterlimit="10"/>
<path d="M88.2912 19.5197L87.0254 18.5312" stroke="#C87629" stroke-width="0.2" stroke-miterlimit="10"/>
<path d="M88.7667 18.7697L87.501 17.7812" stroke="#C87629" stroke-width="0.2" stroke-miterlimit="10"/>
<path d="M90.5076 19.0041L87.9761 17.0273" stroke="#C87629" stroke-width="0.2" stroke-miterlimit="10"/>
<path d="M89.7174 17.2658L88.4517 16.2773" stroke="#C87629" stroke-width="0.2" stroke-miterlimit="10"/>
<path d="M90.193 16.5118L88.9272 15.5234" stroke="#C87629" stroke-width="0.2" stroke-miterlimit="10"/>
<path d="M90.6681 15.7618L89.4023 14.7734" stroke="#C87629" stroke-width="0.2" stroke-miterlimit="10"/>
<path d="M92.4094 15.9963L89.8779 14.0195" stroke="#C87629" stroke-width="0.2" stroke-miterlimit="10"/>
<path d="M91.6192 14.254L90.3535 13.2656" stroke="#C87629" stroke-width="0.2" stroke-miterlimit="10"/>
<path d="M92.0944 13.504L90.8286 12.5156" stroke="#C87629" stroke-width="0.2" stroke-miterlimit="10"/>
<path d="M92.57 12.7501L91.3042 11.7617" stroke="#C87629" stroke-width="0.2" stroke-miterlimit="10"/>
<path d="M94.3109 12.9885L91.7793 11.0117" stroke="#C87629" stroke-width="0.2" stroke-miterlimit="10"/>
<path d="M74.3932 16.5977L93.5708 50.9549L87.8115 54.927L68.6338 20.5698C68.9827 21.1949 69.5894 21.4822 69.9871 21.208C70.3847 20.9338 70.4226 20.2019 70.0737 19.5768C70.4226 20.2019 71.0293 20.4892 71.427 20.2149C71.8246 19.9407 71.8624 19.2088 71.5136 18.5837C71.8624 19.2088 72.4692 19.4962 72.8669 19.2219C73.2645 18.9477 73.3023 18.2158 72.9534 17.5907C73.3023 18.2158 73.9091 18.5031 74.3068 18.2288C74.7043 17.9546 74.7421 17.2227 74.3932 16.5977Z" fill="#0000F9"/>
<path d="M74.3929 16.5979C74.7268 17.196 74.6767 17.906 74.2791 18.1802C73.8815 18.4545 73.287 18.1891 72.9531 17.5909C73.287 18.189 73.2369 18.899 72.8393 19.1733C72.4417 19.4475 71.8471 19.1821 71.5133 18.584C71.8472 19.1821 71.7971 19.8921 71.3995 20.1664C71.0018 20.4406 70.4073 20.1753 70.0734 19.5771C70.4073 20.1753 70.3573 20.8852 69.9596 21.1595C69.562 21.4337 68.9675 21.1684 68.6336 20.5702C68.6125 20.5324 68.5932 20.4953 68.5761 20.4568L68.4246 19.5778L67.1763 12.3097L66.8047 10.1484L68.3818 11.4783L73.6859 15.9491L74.3272 16.4904C74.3505 16.5244 74.3718 16.56 74.3929 16.5979Z" fill="#F9D6AF"/>
<path d="M68.3818 11.4783C68.2452 11.7036 68.0704 11.8941 67.8601 12.0392C67.6498 12.1842 67.4186 12.2737 67.1763 12.3097L66.8047 10.1484L68.3818 11.4783Z" fill="#0000F9"/>
<path d="M94.1738 58.1675L93.3568 58.731C91.992 59.6722 90.1992 59.2055 89.3524 57.6884L89.103 57.2418L94.8624 53.2695L95.1117 53.7162C95.9586 55.2333 95.5386 57.2262 94.1738 58.1675Z" fill="#BE1218"/>
<path d="M94.8773 53.3687L89.1771 57.3002C89.0188 57.4093 88.8108 57.3552 88.7127 57.1792L86.9687 54.0548C86.8705 53.8789 86.9192 53.6477 87.0775 53.5386L92.7778 49.6072C92.9361 49.498 93.144 49.5522 93.2422 49.7281L94.9861 52.8525C95.0843 53.0285 95.0356 53.2595 94.8773 53.3687Z" fill="#93ACBF"/>
<path d="M87.8511 54.274L91.692 51.625" stroke="#BBDBF3" stroke-width="0.2" stroke-miterlimit="10" stroke-linecap="round" stroke-linejoin="round"/>
<path d="M89.0903 54.9355L93.8053 51.6836" stroke="#BBDBF3" stroke-width="0.2" stroke-miterlimit="10" stroke-linecap="round" stroke-linejoin="round"/>
<path d="M89.2588 56.3388L93.2105 53.6133" stroke="#BBDBF3" stroke-width="0.2" stroke-miterlimit="10" stroke-linecap="round" stroke-linejoin="round"/>
<path d="M70.7339 20.8906L86.3444 48.8572" stroke="#40A87B" stroke-width="0.2" stroke-miterlimit="10" stroke-linecap="round" stroke-linejoin="round"/>
<path d="M71.9976 19.4531L89.1626 50.2047" stroke="#40A87B" stroke-width="0.2" stroke-miterlimit="10" stroke-linecap="round" stroke-linejoin="round"/>
<path d="M73.9194 19.0508L76.0958 22.9499" stroke="#40A87B" stroke-width="0.2" stroke-miterlimit="10" stroke-linecap="round" stroke-linejoin="round"/>
<path d="M76.4482 23.582L88.5971 45.347" stroke="#40A87B" stroke-width="0.2" stroke-miterlimit="10" stroke-linecap="round" stroke-linejoin="round"/>
<path d="M58.7254 47.2268C58.9304 46.4245 58.5768 45.6035 57.9397 45.4023L52.2406 44.483C52.0566 44.4059 51.8489 44.3089 51.6857 44.2053C51.3063 43.9644 50.2064 43.4452 50.1404 43.6219C50.0743 43.7985 50.763 44.3241 50.6805 44.3729C50.5981 44.4218 50.0119 44.1674 49.7698 44.037C49.5276 43.9064 49.049 43.5337 48.9096 43.6149C48.7702 43.696 48.8212 43.9473 48.8212 43.9473C48.8212 43.9473 48.6543 43.7803 48.5805 43.9162C48.5068 44.0522 48.7102 44.3827 48.7102 44.3827C48.7102 44.3827 48.6259 44.2792 48.5781 44.4516C48.5303 44.6239 48.9847 45.0002 48.9847 45.0002C48.9847 45.0002 48.8752 44.9662 48.855 45.1025C48.8348 45.2387 49.4809 45.6596 50.0148 45.7881C50.4914 45.9029 51.6512 46.0357 51.8947 46.0629L57.1944 48.32C57.8315 48.5211 58.5205 48.0292 58.7254 47.2268Z" fill="#FDAE97"/>
<path d="M67.0914 25.9878L31.1421 30.1016L32.7355 47.3063L68.6848 43.1925L67.0914 25.9878Z" fill="#E5F0F8"/>
<path d="M42.4045 30.2671L32.313 31.4219L33.6395 45.7448L43.731 44.59L42.4045 30.2671Z" fill="white"/>
<path d="M38.1976 39.913C39.3575 39.7803 40.1738 38.3337 40.0208 36.6819C39.8679 35.0302 38.8036 33.7988 37.6437 33.9315C36.4837 34.0643 35.6675 35.5109 35.8204 37.1626C35.9734 38.8143 37.0377 40.0457 38.1976 39.913Z" fill="#E5F0F8"/>
<path d="M43.1973 44.6577L34.1727 45.6902C33.9257 42.326 35.6733 39.4038 38.1247 39.1234C40.5788 38.8425 42.8226 41.3082 43.1973 44.6577Z" fill="#E5F0F8"/>
<path d="M51.7189 29.2025L43.7598 30.1133L43.8284 30.8546L51.7876 29.9438L51.7189 29.2025Z" fill="white"/>
<path d="M66.3403 27.5304L64.6265 27.7266L64.6951 28.4678L66.409 28.2717L66.3403 27.5304Z" fill="white"/>
<path d="M64.1103 27.7843L62.3965 27.9805L62.4651 28.7217L64.179 28.5256L64.1103 27.7843Z" fill="white"/>
<path d="M61.8799 28.0422L60.166 28.2383L60.2347 28.9796L61.9485 28.7834L61.8799 28.0422Z" fill="white"/>
<path d="M56.72 31.7449L44.0449 33.1953L44.1136 33.9366L56.7887 32.4862L56.72 31.7449Z" fill="white"/>
<path d="M53.9897 30.5019L43.9023 31.6562L43.971 32.3975L54.0583 31.2432L53.9897 30.5019Z" fill="white"/>
<path d="M46.0615 35.0371L44.2349 35.2461L44.2941 35.8861L46.1207 35.6771L46.0615 35.0371Z" fill="white"/>
<path d="M53.5331 34.1783L46.3179 35.0039L46.3771 35.6439L53.5923 34.8183L53.5331 34.1783Z" fill="white"/>
<path d="M60.069 33.4333L53.8198 34.1484L53.8791 34.7885L60.1283 34.0734L60.069 33.4333Z" fill="white"/>
<path d="M66.816 32.6596L60.3257 33.4023L60.385 34.0424L66.8753 33.2997L66.816 32.6596Z" fill="white"/>
<path d="M48.137 36.0313L44.3481 36.4648L44.4074 37.1049L48.1962 36.6713L48.137 36.0313Z" fill="white"/>
<path d="M55.2011 35.2253L48.4312 36L48.4904 36.64L55.2604 35.8653L55.2011 35.2253Z" fill="white"/>
<path d="M66.929 33.883L55.4951 35.1914L55.5544 35.8314L66.9883 34.523L66.929 33.883Z" fill="white"/>
<path d="M50.2727 37.0225L44.4614 37.6875L44.5207 38.3275L50.3319 37.6625L50.2727 37.0225Z" fill="white"/>
<path d="M58.7406 36.0547L50.5142 36.9961L50.5734 37.6361L58.7999 36.6947L58.7406 36.0547Z" fill="white"/>
<path d="M67.0422 35.1019L59.0576 36.0156L59.1169 36.6556L67.1015 35.7419L67.0422 35.1019Z" fill="white"/>
<path d="M51.6938 38.0954L44.5742 38.9102L44.6335 39.5502L51.7531 38.7355L51.6938 38.0954Z" fill="white"/>
<path d="M59.1621 37.24L52.0425 38.0547L52.1018 38.6947L59.2213 37.88L59.1621 37.24Z" fill="white"/>
<path d="M67.1423 36.3266L59.4824 37.2031L59.5417 37.8431L67.2016 36.9666L67.1423 36.3266Z" fill="white"/>
<path d="M50.9618 39.4148L44.6875 40.1328L44.7468 40.7728L51.0211 40.0548L50.9618 39.4148Z" fill="white"/>
<path d="M60.2446 38.3505L51.2231 39.3828L51.2824 40.0228L60.3039 38.9905L60.2446 38.3505Z" fill="white"/>
<path d="M67.2556 37.5497L60.5215 38.3203L60.5808 38.9603L67.3149 38.1897L67.2556 37.5497Z" fill="white"/>
<path d="M48.0563 40.979L44.8008 41.3516L44.8601 41.9916L48.1156 41.6191L48.0563 40.979Z" fill="white"/>
<path d="M52.7352 40.4447L48.3604 40.9453L48.4196 41.5853L52.7945 41.0847L52.7352 40.4447Z" fill="white"/>
<path d="M60.0258 39.6103L53.0698 40.4062L53.1291 41.0463L60.0851 40.2503L60.0258 39.6103Z" fill="white"/>
<path d="M67.3139 38.7782L60.3579 39.5742L60.4172 40.2142L67.3732 39.4183L67.3139 38.7782Z" fill="white"/>
<path d="M52.2299 41.7371L44.9141 42.5742L44.9733 43.2142L52.2891 42.3771L52.2299 41.7371Z" fill="white"/>
<path d="M58.373 41.0364L52.5464 41.7031L52.6057 42.3432L58.4323 41.6764L58.373 41.0364Z" fill="white"/>
<path d="M63.5653 40.4394L58.7349 40.9922L58.7941 41.6322L63.6245 41.0795L63.5653 40.4394Z" fill="white"/>
<path d="M67.427 39.9989L63.8672 40.4062L63.9265 41.0463L67.4862 40.6389L67.427 39.9989Z" fill="white"/>
<path d="M50.3105 43.1923L45.0273 43.7969L45.0866 44.4369L50.3697 43.8323L50.3105 43.1923Z" fill="white"/>
<path d="M56.81 48.1243C57.4676 48.5177 58.2952 48.2415 58.649 47.5106L61.3092 42.0164C61.6631 41.2855 61.4147 40.3656 60.7571 39.9722C60.0995 39.5788 59.272 39.855 58.9181 40.5859L56.2579 46.0801C55.904 46.8109 56.1524 47.7309 56.81 48.1243Z" fill="#F74242"/>
<path d="M63.5739 35.6289C63.5739 35.6289 64.2795 36.201 64.1263 37.382C63.9731 38.563 63.8873 39.2022 64.559 39.2632C65.2306 39.3241 66.5761 38.879 66.685 39.8781C66.794 40.8772 66.1601 41.5428 67.1063 41.727C68.0525 41.9111 68.1819 43.2655 68.1819 43.2655C68.1819 43.2655 64.8027 45.6307 61.5903 43.4588C58.3779 41.2868 61.8014 39.7888 61.8014 39.7888L63.5739 35.6289Z" fill="#322A28"/>
<path d="M65.6254 68.4375H54.6113V69.0864H65.6254V68.4375Z" fill="#322A28"/>
<path d="M66.7294 76.9531H55.7153V77.6021H66.7294V76.9531Z" fill="#322A28"/>
<path d="M67.5786 85.4727H56.9014V86.1216H67.5786V85.4727Z" fill="#322A28"/>
<path d="M58.0534 93.8352H57.4307L53.792 62.4688H54.4147L58.0534 93.8352Z" fill="#322A28"/>
<path d="M68.6872 93.8352H68.0645L64.4258 62.4688H65.0485L68.6872 93.8352Z" fill="#322A28"/>
<path d="M60.7842 93.8352H61.4069L65.0456 62.4688H64.4229L60.7842 93.8352Z" fill="#322A28"/>
<path d="M50.1504 93.8352H50.7731L54.4118 62.4688H53.7891L50.1504 93.8352Z" fill="#322A28"/>
<path d="M64.9481 62.4688H53.9341V63.1177H64.9481V62.4688Z" fill="#322A28"/>
<path d="M63.5121 53.7735C62.4652 54.9119 60.1111 55.6083 57.462 55.3351C54.8129 55.0619 53.0935 55.0822 53.0935 55.0822C51.8812 55.0822 50.8984 53.9898 50.8984 52.6422C50.8984 51.2946 51.8812 50.2022 53.0935 50.2022L63.0788 49.8516L63.5121 53.7735Z" fill="#0775EF"/>
<path d="M63.0517 39.3438L65.4277 40.54C65.4277 40.54 64.8995 47.3392 64.8449 48.0829C64.7902 48.8267 64.995 49.9499 64.995 49.9499H59.3009C59.3009 49.9499 59.3691 46.307 58.9868 45.29C58.7277 44.601 58.5498 44.182 58.7 43.3926C58.8502 42.6034 59.9493 41.208 59.7717 39.842L61.0113 39.4007L63.0517 39.3438Z" fill="#F74242"/>
<path d="M62.6357 49.2376C63.3425 49.5054 64.118 49.0817 64.3589 48.2961L66.1698 42.3903C66.4107 41.6046 66.0296 40.7427 65.3227 40.4749C64.6159 40.2071 63.8405 40.6308 63.5996 41.4165L61.7886 47.3223C61.5477 48.1079 61.9289 48.9698 62.6357 49.2376Z" fill="#F74242"/>
<path d="M60.5881 35.6969C60.5881 35.6969 60.2224 34.8334 60.9854 34.5195L60.5881 35.6969Z" fill="#322A28"/>
<path d="M63.0618 39.3467L63.0602 39.3485C63.0347 39.3981 62.6037 40.2055 61.788 40.138C61.0664 40.0777 61.0122 39.4035 61.0122 39.4035V36.332H62.7681L63.0618 39.3467Z" fill="#FDAE97"/>
<path d="M61.0125 39.0511L62.2375 37.5703L61.0117 38.0822L61.0125 39.0511Z" fill="#E89780"/>
<path d="M62.2096 38.0982C61.6559 38.5073 60.9812 38.5473 60.5595 38.2675C60.1374 37.9894 60.1705 37.2882 60.2702 36.8383C60.2705 36.8366 60.2705 36.8366 60.2709 36.8348C60.2917 36.7418 60.3214 36.6109 60.3543 36.4626C60.4821 35.8815 60.6709 35.0208 60.6709 35.0208C60.7498 34.5673 61.854 33.4913 63.0095 34.7385C64.1647 35.9875 62.7632 37.689 62.2096 38.0982Z" fill="#FDAE97"/>
<path d="M60.6987 34.8385C60.6987 34.8385 60.7397 35.3738 61.433 35.6916C62.1262 36.0093 62.7943 36.5187 62.7519 37.3155C62.7096 38.1123 62.9756 38.5444 62.9756 38.5444C62.9756 38.5444 63.0282 37.5515 63.4354 36.6888C63.5933 36.3542 63.7122 35.661 63.3951 35.0887C62.8947 34.1855 61.6851 33.5492 60.6987 34.8385Z" fill="#322A28"/>
<path d="M62.628 37.151C62.4943 37.3985 62.4612 37.5708 62.636 37.6876C62.8108 37.8043 63.0955 37.7571 63.2292 37.5096C63.363 37.2621 63.3297 36.9669 63.1549 36.8501C62.9801 36.7334 62.7617 36.9035 62.628 37.151Z" fill="#FDAE97"/>
<path d="M63.0171 37.3057C62.8719 37.2376 62.752 37.3138 62.752 37.3138C62.8365 37.0356 63.1361 37.128 63.1361 37.128" stroke="#E89780" stroke-width="0.5977" stroke-miterlimit="10" stroke-linecap="round" stroke-linejoin="round"/>
<path d="M59.0572 45.5294C59.0572 45.5294 58.6396 44.5136 58.6526 43.7499C58.6656 42.9862 59.1355 42.3203 59.1355 42.3203" stroke="white" stroke-width="1.1954" stroke-miterlimit="10"/>
<path d="M54.5126 65.6722H58.1932L55.2774 52.6561L55.274 52.6109C55.1961 51.3464 54.2467 50.3477 53.0888 50.3477C51.8783 50.3477 50.8984 51.4369 50.8984 52.7824C50.8984 52.8578 50.9018 52.9313 50.9086 53.0029L54.5126 65.6722Z" fill="#0775EF"/>
<path d="M54.1037 68.0029L53.6714 68.4364H58.0219L57.9228 68.0029L57.6266 66.6329L57.3569 65.6719H55.0428L55.4701 66.6329L54.1037 68.0029Z" fill="#FDAE97"/>
<path d="M58.0225 68.4374H53.6729C53.6785 68.3067 53.6952 68.1791 53.7233 68.0578C53.9164 67.2332 54.5881 66.6328 55.3802 66.6328H57.6278L57.9217 68.0049L57.9329 68.0578L58.0225 68.4374Z" fill="#088CFF"/>
<path d="M56.003 67.168H55.2744" stroke="white" stroke-width="0.1" stroke-miterlimit="10"/>
<path d="M55.7716 67.4805H55.043" stroke="white" stroke-width="0.1" stroke-miterlimit="10"/>
<path d="M56.8432 67.7173C57.0137 67.7173 57.1518 67.5637 57.1518 67.3743C57.1518 67.1848 57.0137 67.0312 56.8432 67.0312C56.6728 67.0312 56.5347 67.1848 56.5347 67.3743C56.5347 67.5637 56.6728 67.7173 56.8432 67.7173Z" fill="white"/>
<path d="M64.6527 74.1918H68.3332L67.1651 61.1757L67.1617 61.1305C67.0838 59.866 66.1344 58.8672 64.9765 58.8672C63.766 58.8672 62.7861 59.9564 62.7861 61.3019C62.7861 61.3773 62.7895 61.4508 62.7963 61.5224L64.6527 74.1918Z" fill="#088CFF"/>
<path d="M58.0225 68.4382H53.6729C53.6785 68.3075 53.6952 68.1799 53.7233 68.0586H57.9329L58.0225 68.4382Z" fill="white"/>
<path d="M64.9953 49.9531C66.1232 50.9915 66.8932 53.207 66.9257 56.1641C66.9581 59.1212 67.1559 61.0198 67.1559 61.0198C67.2826 62.36 66.408 63.5606 65.2023 63.7015C63.9967 63.8423 62.9166 62.8701 62.7899 61.5299L61.0864 49.9531H64.9953Z" fill="#088CFF"/>
<path d="M55.4331 42.1016C55.5392 41.9954 55.6553 42.2091 55.6553 42.2091C55.6553 42.2091 55.6721 41.9522 55.8267 41.9195C55.9813 41.8868 56.3419 42.3979 56.5395 42.6009C56.7372 42.804 57.2317 43.2365 57.3234 43.2163C57.415 43.1962 56.8932 42.4711 57.0026 42.3234C57.112 42.1757 58.0289 43.0274 58.329 43.3803C58.4581 43.5321 58.6316 43.6919 58.7875 43.825L64.0011 46.5439C64.5583 46.9419 64.6822 47.8417 64.2766 48.5433C63.8709 49.245 63.0831 49.4934 62.5259 49.0954L58.044 45.2254C57.818 45.1208 56.7429 44.6194 56.3168 44.3558C55.8394 44.0605 55.331 43.4493 55.386 43.3254C55.4409 43.2015 55.5368 43.2694 55.5368 43.2694C55.5368 43.2694 55.2002 42.7627 55.2909 42.6132C55.3817 42.4637 55.4354 42.59 55.4354 42.59C55.4354 42.59 55.327 42.2079 55.4331 42.1016Z" fill="#FDAE97"/>
<path d="M64.3982 35.859C64.732 35.5793 64.6977 34.9027 64.3214 34.3477C63.9451 33.7927 63.3695 33.5695 63.0356 33.8491C62.7018 34.1288 62.7362 34.8054 63.1124 35.3604C63.4887 35.9154 64.0643 36.1386 64.3982 35.859Z" fill="#322A28"/>
<path d="M62.5568 37.6943C62.5379 37.7946 62.5956 37.8931 62.6859 37.9141C62.7761 37.9352 62.8646 37.871 62.8836 37.7707C62.9026 37.6704 62.8448 37.5719 62.7546 37.5509C62.6643 37.5298 62.5758 37.594 62.5568 37.6943Z" stroke="white" stroke-width="0.7854" stroke-miterlimit="10"/>
<path d="M64.256 76.5225L63.8237 76.9559H67.8585L67.8399 76.5225L67.7789 75.1525L67.7365 74.1914H65.4224L65.6224 75.1525L64.256 76.5225Z" fill="#FDAE97"/>
<path d="M67.8581 76.9538H63.8247L63.8611 76.7516C63.8723 76.6925 63.8863 76.6333 63.9031 76.5742C64.0066 76.1853 64.2138 75.8493 64.4853 75.6035C64.7959 75.3204 65.1934 75.1523 65.6216 75.1523H67.7797L67.8385 76.5213L67.8413 76.5742L67.8581 76.9538Z" fill="#088CFC"/>
<path d="M66.1554 75.6836H65.4268" stroke="white" stroke-width="0.1" stroke-miterlimit="10"/>
<path d="M65.9239 75.9961H65.1953" stroke="white" stroke-width="0.1" stroke-miterlimit="10"/>
<path d="M66.6865 75.8938C66.6865 76.0832 66.8247 76.2368 66.9951 76.2368C67.1655 76.2368 67.3037 76.0832 67.3037 75.8938C67.3037 75.7044 67.1655 75.5508 66.9951 75.5508C66.8247 75.5508 66.6865 75.7043 66.6865 75.8938Z" fill="white"/>
<path d="M67.8581 76.9538H63.8247L63.8611 76.7515C63.8723 76.6925 63.8863 76.6333 63.9031 76.5742H67.8413L67.8581 76.9538Z" fill="white"/>
<path d="M62.2988 45.6567L62.9135 43.6523" stroke="white" stroke-width="1.1954" stroke-miterlimit="10"/>
<path d="M88.8947 96.0543H4.73141C4.18079 96.0543 3.73438 95.5581 3.73438 94.946V94.6356C3.73438 94.0236 4.18073 93.5273 4.73141 93.5273H88.8947C89.4453 93.5273 89.8917 94.0235 89.8917 94.6356V94.946C89.8917 95.5581 89.4453 96.0543 88.8947 96.0543Z" fill="#0775EF"/>
<path d="M26.4574 59.3256L23.7285 59.2741L23.8715 56.0889L23.9397 54.5658L23.9436 54.49L26.0788 53.4922L26.1483 54.5687L26.1999 55.3531L26.4574 59.3256Z" fill="#FDAE97"/>
<path d="M21.1204 69.1848L19.9729 79.7441C19.9368 80.011 19.9379 80.2885 19.9869 80.5686C20.2175 81.8871 21.366 82.7481 22.552 82.4918C23.7381 82.2355 24.1921 81.2175 24.4051 79.7036C24.8141 76.7974 26.2424 68.0781 26.2424 68.0781L21.1204 69.1848Z" fill="#088CFC"/>
<path d="M28.5616 68.6523L24.3462 68.9667L24.3672 74.158L24.8675 74.9804L25.3313 79.9849L29.5983 79.6058L28.5616 68.6523Z" fill="#088CFC"/>
<path d="M17.6527 66.2963L17.667 66.3069C18.2959 66.772 19.1527 66.5807 19.5712 65.8816L22.9806 60.1861C23.399 59.4872 23.2269 58.5347 22.598 58.0695L22.5837 58.0589C21.9548 57.5938 21.098 57.7851 20.6796 58.4842L17.2702 64.1797C16.8518 64.8787 17.0239 65.8312 17.6527 66.2963Z" fill="#F74242"/>
<path d="M36.1437 59.1412L34.696 60.7161L33.2334 59.7264L34.1744 58.0977L36.0813 58.1662L36.1437 59.1412Z" fill="#E89780"/>
<path d="M30.5226 66.6049C31.2039 67.0454 32.0518 66.858 32.3997 66.1884L34.1217 62.6904L34.7291 61.4505L35.3648 60.1599L34.3077 59.3478L33.5572 58.7716L33.4847 58.7148L32.7133 59.9872L32.0049 61.1526L29.9202 64.5843C29.5723 65.2539 29.8411 66.1645 30.5226 66.6049Z" fill="#F74242"/>
<path d="M25.1282 57.9906C26.1295 58.015 26.5559 57.4618 26.6845 57.2445L26.3101 57.0564L23.8341 56.918L23.5366 57.0238C23.6621 57.2837 24.1053 57.9655 25.1282 57.9906Z" fill="#FDAE97"/>
<path d="M28.6818 64.9156L28.7411 69.4672H21.0332L21.1246 57.9921L23.7696 56.9297C23.7993 56.9901 23.8314 57.0532 23.8709 57.1191L23.8807 57.1329C24.024 57.336 24.2981 57.5282 25.0662 57.5474C25.7059 57.5639 26.0195 57.465 26.1973 57.336L26.1998 57.3332C26.2961 57.2618 26.3529 57.1767 26.3974 57.0999L28.8942 57.7121L28.7263 63.5046L28.6818 64.9156Z" fill="#F74242"/>
<path d="M19.1738 90.4627L23.1389 90.4596L24.3341 80.203C24.4588 78.8665 23.5872 77.6695 22.3863 77.5288C21.1838 77.3901 20.1088 78.359 19.9822 79.6938C19.9708 79.8098 19.9695 79.9232 19.9733 80.038L19.2831 89.0404L19.1738 90.4627Z" fill="#088CFC"/>
<path d="M31.9038 66.6723C31.2204 67.0595 30.3762 66.7548 30.0279 65.9951L27.2284 59.8901C26.88 59.1304 27.1542 58.1921 27.8376 57.8048C28.5211 57.4176 29.3652 57.7224 29.7136 58.482L32.513 64.587C32.8613 65.3467 32.5872 66.285 31.9038 66.6723Z" fill="#F74242"/>
<path d="M26.1969 57.3359L25.0659 59.3235L23.8804 57.1328C24.0236 57.3359 24.2978 57.5281 25.0659 57.5473C25.7055 57.5638 26.0192 57.465 26.1969 57.3359Z" fill="#D6EAFF"/>
<path d="M13.0877 79.9083C13.6749 79.5331 15.0522 78.853 15.7882 78.4519C16.8551 77.8705 17.4962 75.6322 15.7084 73.8744C14.2571 72.4475 12.0015 74.4176 11.1734 75.0877C11.043 75.1932 10.8645 75.0722 10.8866 74.8946C10.95 74.387 11.2193 73.4187 12.0399 72.4597C13.5435 70.7024 14.9173 70.3755 15.9881 70.5209C16.215 70.5517 16.449 70.549 16.6782 70.5249C17.5727 70.4307 18.4138 70.0084 19.1036 69.3683L35.4235 54.2249C37.6089 51.9742 36.4217 49.7705 38.2428 47.7465C39.594 46.2446 42.141 46.3523 43.2117 46.4648C43.3747 46.482 43.4229 46.7206 43.2809 46.8113C42.6938 47.1865 41.6776 47.5801 40.9416 47.9812C39.8747 48.5626 39.3865 51.1046 41.1743 52.8625C42.6256 54.2893 44.5726 52.5592 45.4007 51.8891C45.5311 51.7836 45.7096 51.9046 45.6874 52.0822C45.624 52.5898 45.3705 53.4507 44.5498 54.4098C43.0463 56.167 41.4513 56.3442 40.3805 56.1988C39.9266 56.1372 39.4377 56.2566 39.0143 56.4222C38.4456 56.6445 37.9235 56.9931 37.4607 57.4226L20.6277 73.0421C20.2719 73.3723 19.9865 73.7889 19.8046 74.2628C19.1779 75.895 19.6984 77.4465 18.3575 78.9369C17.0062 80.4388 14.2277 80.3674 13.157 80.2549C12.9939 80.2377 12.9457 79.9991 13.0877 79.9083Z" fill="#93ACBF"/>
<path d="M19.4737 72.2911L37.6474 55.4275C37.9073 55.1863 37.9425 54.7526 37.7255 54.4637C37.5086 54.1748 37.1184 54.1358 36.8585 54.3769L18.6847 71.2406C18.4248 71.4817 18.3897 71.9154 18.6066 72.2043C18.8236 72.4932 19.2138 72.5323 19.4737 72.2911Z" fill="#586773"/>
<path d="M27.251 67.0344C27.2346 67.1679 26.516 67.3395 25.9826 67.2764C25.5305 67.2235 24.5 66.9767 24.1968 66.9016L24.3105 65.2989C24.4927 65.289 24.6933 65.2707 24.8637 65.2312C25.2836 65.1377 26.451 65.028 26.4639 65.2164C26.4779 65.403 25.6904 65.6576 25.7539 65.7313C25.8176 65.805 26.434 65.7677 26.6947 65.7283C26.9572 65.6903 27.5053 65.5064 27.6122 65.6292C27.721 65.7533 27.6023 65.9691 27.6023 65.9691C27.6023 65.9691 27.8048 65.8718 27.8363 66.0235C27.8677 66.1751 27.5868 66.4139 27.5868 66.4139C27.5868 66.4139 27.6928 66.346 27.6902 66.5223C27.6865 66.7004 27.1597 66.8955 27.1597 66.8955C27.1597 66.8955 27.2703 66.9002 27.251 67.0344Z" fill="#FDAE97"/>
<path d="M25.316 79.8016L26.3343 90.4619H30.2296L29.6051 79.7432C29.6101 79.6302 29.5813 79.5041 29.5729 79.3874C29.4662 78.0486 28.5091 77.0488 27.3047 77.1655C26.102 77.2841 25.211 78.4628 25.316 79.8016Z" fill="#088CFC"/>
<path d="M24.5487 64.7831L23.1698 64.4746L21.9213 64.1969L18.5905 63.4523C17.9011 63.3503 17.2508 63.9757 17.1447 64.8447C17.0402 65.7133 17.5193 66.5088 18.2091 66.6126L21.686 66.8978L22.9494 67.0029L24.255 67.1104L24.5487 64.7831Z" fill="#F74242"/>
<path d="M26.2752 56.5128L24.7412 55.2695L26.1999 55.352L26.2752 56.5128Z" fill="#EA9D85"/>
<path d="M26.0473 51.7256C26.0473 51.7256 26.2904 52.7086 26.4628 53.4058L26.6052 53.9821C26.7178 54.4375 26.77 55.148 26.3476 55.4451C25.9267 55.7417 25.2405 55.7218 24.6675 55.324C24.094 54.9246 22.5197 52.8177 23.6618 51.5128C24.8055 50.2075 25.9574 51.5 26.0473 51.7256Z" fill="#FDAE97"/>
<path d="M23.9116 55.1945C23.9116 55.1945 24.6526 53.9281 24.2488 53.207C23.8451 52.486 24.2488 52.3049 24.5322 52.36C24.8155 52.4151 25.3082 52.3993 25.5081 52.3127C25.5081 52.3127 24.9076 52.3284 24.6526 52.1631C24.6526 52.1631 25.8364 52.2709 26.0945 51.9178L26.158 52.1745C26.158 52.1745 26.5846 51.0577 25.9431 50.7979C25.3016 50.538 25.035 50.8324 25.035 50.8324C25.035 50.8324 25.2391 50.3757 24.9458 50.2891C24.6525 50.2024 24.3833 50.8639 24.3833 50.8639C24.3833 50.8639 23.9725 50.2969 23.5474 50.856C23.1224 51.4151 23.2995 51.9269 23.2995 51.9269C23.2995 51.9269 22.8037 52.3836 23.0445 53.1002C23.2854 53.8167 23.8577 54.4935 23.9116 55.1945Z" fill="#322A28"/>
<path d="M24.2597 54.2747C24.4885 54.5042 24.5796 54.6871 24.4175 54.8867C24.2554 55.0864 23.9176 55.1422 23.6888 54.9127C23.46 54.6831 23.406 54.3352 23.5681 54.1356C23.7303 53.9359 24.031 54.0452 24.2597 54.2747Z" fill="#FDAE97"/>
<path d="M23.8616 54.6454C24.0087 54.5655 24.1443 54.5591 24.1443 54.5591C23.935 54.3136 23.7412 54.4088 23.7412 54.4088" stroke="#EA9D85" stroke-width="1.3191" stroke-miterlimit="10" stroke-linecap="round" stroke-linejoin="round"/>
<path d="M26.3042 56.9609L25.0664 57.5497L25.7169 58.428L26.4574 57.13L26.3042 56.9609Z" fill="white"/>
<path d="M23.8381 56.832L25.0663 57.551L24.4806 58.3924L23.7285 56.9503L23.8381 56.832Z" fill="white"/>
<path d="M26.8964 92.1269L26.792 90.4609H29.7105L29.8245 92.1269H26.8964Z" fill="#FDAE97"/>
<path d="M29.7621 91.2157L26.792 90.4609H29.7105L29.7621 91.2157Z" fill="#EA9D85"/>
<path d="M22.5643 92.1257L22.6763 90.457L19.6869 90.4597L19.6362 92.1257H22.5643Z" fill="#FDAE97"/>
<path d="M36.0608 57.879L35.6368 57.8905C35.5229 57.8936 35.424 57.9818 35.3892 58.1114L35.1226 59.1027C35.0667 59.3104 35.195 59.5275 35.3777 59.5345L35.8383 59.5522C35.9625 59.557 36.0721 59.46 36.1044 59.3166L36.3344 58.296C36.3822 58.0843 36.2442 57.874 36.0608 57.879Z" fill="#FDAE97"/>
<path d="M22.6139 91.3877L19.687 90.4597L22.6764 90.457L22.6139 91.3877Z" fill="#EA9D85"/>
<path d="M23.3915 51.8765C23.3915 51.8765 23.0444 51.6718 22.6973 51.9946C22.6973 51.9946 23.2923 51.8057 23.3915 52.0576C23.4907 52.3096 23.3915 51.8765 23.3915 51.8765Z" fill="#322A28"/>
<path d="M23.5835 57.2852L25.0663 59.9363L26.5294 57.4563" stroke="white" stroke-width="0.6864" stroke-miterlimit="10" stroke-linecap="round" stroke-linejoin="round"/>
<path d="M20.7438 63.9232L20.1787 63.8086" stroke="#322A28" stroke-width="0.025" stroke-miterlimit="10" stroke-linecap="round" stroke-linejoin="round"/>
<path d="M21.0815 63.358L21.4268 62.7812" stroke="#322A28" stroke-width="0.015" stroke-miterlimit="10" stroke-linecap="round" stroke-linejoin="round"/>
<path d="M31.2625 93.529H26.9529L26.9455 93.3341L26.8926 92.043H29.8252C30.1882 92.043 30.5241 92.2799 30.7809 92.527C30.9933 92.7384 31.1514 93.0157 31.2255 93.3341C31.2428 93.3973 31.2551 93.4631 31.2625 93.529Z" fill="#322A28"/>
<path d="M31.2623 93.5269H26.9527L26.9453 93.332H31.2253C31.2426 93.3952 31.2549 93.4611 31.2623 93.5269Z" fill="#FFF1F0"/>
<path d="M29.9132 92.3074C29.9132 92.3074 29.5407 91.5807 29.2899 91.868C29.039 92.1553 29.9132 92.3074 29.9132 92.3074Z" stroke="#FFF1F0" stroke-width="0.1" stroke-miterlimit="10" stroke-linecap="round" stroke-linejoin="round"/>
<path d="M29.7822 92.4521L29.9134 92.3074M29.9134 92.3074C29.9134 92.3074 30.2858 91.5807 30.5367 91.868C30.7876 92.1553 29.9134 92.3074 29.9134 92.3074Z" stroke="#FFF1F0" stroke-width="0.1" stroke-miterlimit="10" stroke-linecap="round" stroke-linejoin="round"/>
<path d="M30.0131 92.4533L29.9131 92.3086" stroke="#FFF1F0" stroke-width="0.1" stroke-miterlimit="10" stroke-linecap="round" stroke-linejoin="round"/>
<path d="M18.2202 93.529H22.5298L22.5372 93.3341L22.5902 92.043H19.6576C19.2946 92.043 18.9587 92.2799 18.7019 92.527C18.4895 92.7384 18.3314 93.0157 18.2573 93.3341C18.24 93.3973 18.2276 93.4631 18.2202 93.529Z" fill="#322A28"/>
<path d="M18.2202 93.5269H22.5298L22.5372 93.332H18.2573C18.24 93.3952 18.2276 93.4611 18.2202 93.5269Z" fill="#FFF1F0"/>
<path d="M19.5693 92.3504C19.5693 92.3504 19.9419 91.6236 20.1927 91.911C20.4436 92.1983 19.5693 92.3504 19.5693 92.3504Z" stroke="#FFF1F0" stroke-width="0.1" stroke-miterlimit="10" stroke-linecap="round" stroke-linejoin="round"/>
<path d="M19.7006 92.4951L19.5695 92.3504M19.5695 92.3504C19.5695 92.3504 19.197 91.6236 18.9461 91.911C18.6952 92.1983 19.5695 92.3504 19.5695 92.3504Z" stroke="#FFF1F0" stroke-width="0.1" stroke-miterlimit="10" stroke-linecap="round" stroke-linejoin="round"/>
<path d="M19.4692 92.4963L19.5693 92.3516" stroke="#FFF1F0" stroke-width="0.1" stroke-miterlimit="10" stroke-linecap="round" stroke-linejoin="round"/>
<path d="M24.9746 76.1362L25.1148 74.8599L25.8195 74.3194L26.392 71.7266" stroke="white" stroke-width="0.1" stroke-miterlimit="10"/>
<path d="M29.8241 89.1562H27.0522" stroke="white" stroke-width="0.1" stroke-miterlimit="10"/>
<path d="M22.4081 89.1562H19.6362" stroke="white" stroke-width="0.1" stroke-miterlimit="10"/>
<path d="M32.5044 19.1484H54.9904" stroke="#BBDBF3" stroke-miterlimit="10" stroke-linecap="round" stroke-linejoin="round" stroke-dasharray="11.09 11.09"/>
<path d="M32.5044 17.5273H54.9904" stroke="#BBDBF3" stroke-miterlimit="10" stroke-linecap="round" stroke-linejoin="round" stroke-dasharray="11.09 11.09"/>
<path d="M54.9904 15.9023H32.5044" stroke="#BBDBF3" stroke-miterlimit="10" stroke-linecap="round" stroke-linejoin="round" stroke-dasharray="11.09 11.09"/>
<path d="M32.5044 14.2812H54.9904" stroke="#BBDBF3" stroke-miterlimit="10" stroke-linecap="round" stroke-linejoin="round" stroke-dasharray="11.09 11.09"/>
<path d="M32.5044 12.6562H54.9904" stroke="#BBDBF3" stroke-miterlimit="10" stroke-linecap="round" stroke-linejoin="round" stroke-dasharray="11.09 11.09"/>
<path d="M32.5044 11.0352H54.9904" stroke="#BBDBF3" stroke-miterlimit="10" stroke-linecap="round" stroke-linejoin="round" stroke-dasharray="11.09 11.09"/>
<path d="M32.5044 9.41016H54.9904" stroke="#BBDBF3" stroke-miterlimit="10" stroke-linecap="round" stroke-linejoin="round" stroke-dasharray="11.09 11.09"/>
<path d="M32.5376 11.7968C32.5376 11.7968 33.6082 11.2133 34.4332 11.9358C35.2582 12.6583 36.2332 14.4086 39.5831 14.2665C42.933 14.1244 44.6958 15.2762 46.8328 16.5077C49.5078 18.0493 51.5327 15.7755 52.3577 13.7584C53.1827 11.7413 54.9904 11.8246 54.9904 11.8246" stroke="#2EC6FC" stroke-miterlimit="10" stroke-linecap="round" stroke-linejoin="round"/>
<path d="M32.5376 18.5281C32.5376 18.5281 33.6582 16.4584 36.3831 16.9927C39.1081 17.5271 42.008 17.5271 44.1079 15.904C45.3972 14.9074 47.1078 12.5024 50.2077 14.5752C53.3076 16.6479 54.3482 16.5759 54.9904 16.4926" stroke="#F74242" stroke-miterlimit="10" stroke-linecap="round" stroke-linejoin="round"/>
<path d="M35.822 17.6428C36.1525 17.6428 36.4204 17.345 36.4204 16.9776C36.4204 16.6103 36.1525 16.3125 35.822 16.3125C35.4915 16.3125 35.2236 16.6103 35.2236 16.9776C35.2236 17.345 35.4915 17.6428 35.822 17.6428Z" fill="white" stroke="#F74242" stroke-width="0.2" stroke-miterlimit="10" stroke-linecap="round" stroke-linejoin="round"/>
<path d="M41.2248 17.8342C41.5553 17.8342 41.8232 17.5364 41.8232 17.1691C41.8232 16.8017 41.5553 16.5039 41.2248 16.5039C40.8944 16.5039 40.6265 16.8017 40.6265 17.1691C40.6265 17.5364 40.8944 17.8342 41.2248 17.8342Z" fill="white" stroke="#F74242" stroke-width="0.2" stroke-miterlimit="10" stroke-linecap="round" stroke-linejoin="round"/>
<path d="M47.783 14.4201C48.1134 14.4201 48.3813 14.1223 48.3813 13.755C48.3813 13.3876 48.1134 13.0898 47.783 13.0898C47.4525 13.0898 47.1846 13.3876 47.1846 13.755C47.1846 14.1223 47.4525 14.4201 47.783 14.4201Z" fill="white" stroke="#F74242" stroke-width="0.2" stroke-miterlimit="10" stroke-linecap="round" stroke-linejoin="round"/>
<path d="M38.5832 14.8694C38.9137 14.8694 39.1816 14.5716 39.1816 14.2042C39.1816 13.8369 38.9137 13.5391 38.5832 13.5391C38.2528 13.5391 37.9849 13.8369 37.9849 14.2042C37.9849 14.5716 38.2528 14.8694 38.5832 14.8694Z" fill="white" stroke="#2EC6FC" stroke-width="0.2" stroke-miterlimit="10" stroke-linecap="round" stroke-linejoin="round"/>
<path d="M49.1211 17.1198C49.1742 16.7572 48.9529 16.4154 48.6267 16.3564C48.3005 16.2974 47.993 16.5434 47.9399 16.906C47.8868 17.2686 48.1082 17.6104 48.4344 17.6694C48.7605 17.7284 49.068 17.4824 49.1211 17.1198Z" fill="white" stroke="#2EC6FC" stroke-width="0.2" stroke-miterlimit="10" stroke-linecap="round" stroke-linejoin="round"/>
<path d="M53.6824 12.7873C54.0128 12.7873 54.2807 12.4895 54.2807 12.1222C54.2807 11.7548 54.0128 11.457 53.6824 11.457C53.3519 11.457 53.084 11.7548 53.084 12.1222C53.084 12.4895 53.3519 12.7873 53.6824 12.7873Z" fill="white" stroke="#2EC6FC" stroke-width="0.2" stroke-miterlimit="10" stroke-linecap="round" stroke-linejoin="round"/>
<path d="M53.4075 16.9748C53.7379 16.9748 54.0058 16.677 54.0058 16.3097C54.0058 15.9423 53.7379 15.6445 53.4075 15.6445C53.077 15.6445 52.8091 15.9423 52.8091 16.3097C52.8091 16.677 53.077 16.9748 53.4075 16.9748Z" fill="white" stroke="#F74242" stroke-width="0.2" stroke-miterlimit="10" stroke-linecap="round" stroke-linejoin="round"/>
<path d="M75.3032 14.5391V13.895L78.6482 11.8828V12.8666L76.4138 14.2171L78.6482 15.5677V16.5514L75.3032 14.5391Z" fill="#BBDBF3"/>
<path d="M79.6663 17.3571L79.1177 17.0889L81.1801 10.1484L81.7288 10.4347L79.6663 17.3571Z" fill="#BBDBF3"/>
<path d="M85.6223 13.8951V14.5392L82.2773 16.5514V15.5677L84.5117 14.2171L82.2773 12.8666V11.8828L85.6223 13.8951Z" fill="#BBDBF3"/>
</g>
<defs>
<clipPath id="clip0_3765_25243">
<rect width="100" height="100" fill="white"/>
</clipPath>
</defs>
</svg>
